 <svg  version="1.0" xmlns="http://www.w3.org/2000/svg" 
  width="390.000000pt" height="298.000000pt" 
  viewBox="0 0 390.000000 298.000000"  preserveAspectRatio="xMidYMid meet"> 
   <g transform="translate(0.000000,298.000000) scale(0.100000,-0.100000)"
    fill="#f7b28c"
     stroke="none"> 
     <path d="M2301 2365 c-24 -14 -56 -36 -71 -49 -16 -13 -52 -32 -80 -42 -73 -26 -122 -72 -155 -146 -25 -54 -30 -80 -35 -183 -8 -147 -19 -173 -107 -250 -36 -32 -72 -73 -79 -91 -8 -19 -14 -68 -14 -111 l0 -77 -52 -51 c-77 -74 -236 -153 -352 -176 -61 -11 -73 -21 -87 -71 -12 -48 2 -153 33 -236 35 -95 22 -152 -36 -152 -30 0 -118 -43 -169 -82 -110 -84 -161 -185 -143 -282 13 -69 73 -54 126 32 80 131 106 154 200 173 126 26 140 54 140 282 0 117 4 168 13 181 7 9 52 28 101 42 98 28 173 62 196 90 9 11 25 36 35 58 21 40 91 126 104 126 6 0 61 -235 91 -390 12 -66 40 -100 110 -135 68 -35 112 -76 164 -153 54 -81 119 -150 154 -163 31 -12 82 6 82 29 0 23 -82 170 -120 215 -19 22 -57 50 -85 63 -40 17 -59 34 -84 73 -83 129 -190 454 -191 578 0 36 4 45 28 57 61 31 100 141 112 307 13 192 45 251 175 316 87 43 123 77 131 120 4 24 12 33 25 33 35 0 35 31 1 62 -42 37 -99 38 -161 3z m128 -19 c9 -10 8 -15 -4 -20 -8 -3 -15 -16 -15 -30 0 -38 -48 -86 -117 -118 -85 -38 -125 -76 -158 -150 -23 -52 -29 -83 -36 -189 -12 -177 -36 -237 -123 -307 -34 -27 -13 -182 50 -372 70 -209 164 -370 217 -370 29 0 116 -93 155 -166 37 -72 39 -84 12 -84 -30 0 -85 55 -146 146 -63 95 -86 117 -177 167 -35 20 -69 42 -75 50 -7 8 -19 52 -28 98 -33 181 -77 365 -89 377 -28 30 -99 -37 -180 -170 -25 -41 -102 -81 -205 -105 -118 -28 -120 -32 -120 -227 0 -163 -9 -224 -34 -245 -8 -7 -48 -20 -90 -30 -94 -23 -134 -53 -185 -139 -48 -83 -78 -113 -91 -92 -13 21 -12 39 6 100 12 42 29 67 74 111 59 58 167 119 210 119 29 0 80 52 80 83 0 13 -12 60 -26 103 -30 88 -44 225 -25 247 6 8 36 19 67 26 107 24 275 107 350 173 50 44 64 77 64 155 0 85 24 140 77 178 46 34 96 97 112 144 6 19 11 73 11 121 0 168 45 250 176 315 44 22 95 52 115 67 60 47 125 62 148 34z"/> </g> </svg> 