<?xml version="1.0" encoding="UTF-8" standalone="no"?>
<svg
   xmlns:dc="http://purl.org/dc/elements/1.1/"
   xmlns:cc="http://creativecommons.org/ns#"
   xmlns:rdf="http://www.w3.org/1999/02/22-rdf-syntax-ns#"
   xmlns:svg="http://www.w3.org/2000/svg"
   xmlns="http://www.w3.org/2000/svg"
   viewBox="0 0 658.24933 632.664"
   height="632.664"
   width="658.24933"
   xml:space="preserve"
   id="svg2"
   version="1.1"><metadata
     id="metadata8"><rdf:RDF><cc:Work
         rdf:about=""><dc:format>image/svg+xml</dc:format><dc:type
           rdf:resource="http://purl.org/dc/dcmitype/StillImage" /></cc:Work></rdf:RDF></metadata><defs
     id="defs6"><clipPath
       id="clipPath22"
       clipPathUnits="userSpaceOnUse"><path
         id="path20"
         d="M 0,474.498 H 493.687 V 0 H 0 Z" /></clipPath></defs><g
     transform="matrix(1.3333333,0,0,-1.3333333,0,632.664)"
     id="g10"><g
       transform="translate(247.0284,272.7081)"
       id="g12"><path
         id="path14"
         style="fill:#f89e79;fill-opacity:1;fill-rule:nonzero;stroke:none"
         d="M 0,0 0.017,0.015 -0.404,0.396 Z" /></g><g
       id="g16"><g
         clip-path="url(#clipPath22)"
         id="g18"><g
           transform="translate(249.265,272.9234)"
           id="g24"><path
             id="path26"
             style="fill:#f89e79;fill-opacity:1;fill-rule:nonzero;stroke:none"
             d="m 0,0 c 0.078,0.003 0.148,0 0.22,-0.003 l 0.657,-0.01 2.169,0.036 c 1.256,0.022 2.433,0.07 3.603,0.14 l 0.569,0.032 0.08,0.018 H 7.303 C 7.3,0.178 7.298,0.143 7.298,0.108 l -0.1,-2.17 C 7.115,-2.999 7.037,-3.928 6.98,-4.868 6.94,-5.587 6.925,-6.301 6.91,-7.015 L 6.895,-7.601 c -0.056,-2.663 -0.068,-5.319 -0.073,-7.336 0,-1.252 -0.005,-2.5 -0.01,-3.747 l -0.008,-1.015 c -0.007,-0.894 -0.015,-1.789 0.003,-2.683 0.02,-1.09 0.002,-2.202 -0.013,-3.28 l -0.005,-0.4 c -0.017,-1.228 -0.04,-2.453 -0.067,-3.683 -0.02,-0.867 -0.025,-1.731 -0.03,-2.596 l -0.01,-1.08 c -0.003,-0.626 -0.008,-1.25 -0.013,-1.876 -0.005,-0.626 -0.01,-1.25 -0.015,-1.879 0,-0.243 -0.002,-0.486 -0.005,-0.729 -0.005,-0.321 -0.01,-0.644 -0.005,-0.96 0,-0.303 0.005,-0.601 0.01,-0.901 0.008,-0.296 0.013,-0.592 0.013,-0.89 l -0.003,-1.265 c 0,-0.844 -0.002,-1.691 0.003,-2.535 0.005,-1.203 0.015,-2.403 0.032,-3.595 v -0.248 c 0,-0.511 0,-1.03 0.025,-1.574 0.015,-0.421 0.033,-0.857 0.246,-1.287 l 0.012,-0.025 C 6.99,-51.291 7,-51.393 7.007,-51.476 l 0.008,-0.09 c 0.067,-0.682 0.621,-1.195 1.288,-1.195 0.345,0 0.681,0.137 0.921,0.381 0.208,0.207 0.334,0.483 0.369,0.844 0.022,0.115 0.03,0.223 0.035,0.333 0.037,0.065 0.075,0.135 0.098,0.203 0.15,0.351 0.165,0.716 0.18,1.072 l 0.05,1.864 c 0.05,2.468 0.09,4.936 0.118,7.403 0.005,0.296 0.012,0.591 0.022,0.89 0.008,0.298 0.018,0.598 0.023,0.894 0.005,0.341 0.007,0.681 0.007,1.02 l 0.015,4.426 c 0.01,1.228 0.023,2.456 0.01,3.683 -0.017,1.225 -0.022,2.453 -0.022,3.678 0,1.466 0.017,2.931 0.035,4.394 0.012,0.995 0.025,1.989 0.033,2.984 l 0.02,2.385 c 0.015,1.636 0.03,3.274 0.03,4.91 0.005,1.261 0.012,2.526 -0.005,3.786 l -0.003,0.233 c -0.01,1.095 -0.02,2.23 -0.098,3.347 -0.025,0.343 -0.047,0.686 -0.075,1.027 -0.01,0.196 -0.032,0.546 -0.06,0.885 l -0.005,0.11 c -0.015,0.423 -0.027,0.839 -0.04,1.255 l 0.023,-0.015 -0.013,0.584 c -0.005,0.162 -0.005,0.348 -0.005,0.546 0.749,0.055 1.501,0.107 2.25,0.155 0.619,0.033 1.235,0.065 1.854,0.095 0.774,0.038 1.55,0.075 2.325,0.123 l 0.228,0.013 c 0.884,0.052 1.816,0.105 2.75,0.137 0.657,0.023 1.313,0.068 1.967,0.116 0.358,0.027 0.714,0.052 1.072,0.075 0.276,0.015 0.602,0.037 0.945,0.06 l 0.799,0.05 C 24.153,1.137 24.151,1.082 24.151,1.037 24.133,0.656 24.128,0.273 24.126,-0.11 l -0.005,-0.331 c 0,-0.534 -0.005,-1.207 -0.028,-1.889 -0.007,-0.343 -0.027,-0.686 -0.05,-1.027 -0.017,-0.303 -0.035,-0.604 -0.045,-0.91 L 23.966,-5.361 C 23.938,-6.218 23.91,-7.08 23.903,-7.939 23.888,-9.194 23.888,-10.45 23.888,-11.695 l -0.025,-3.873 v -1.578 c 0,-0.702 0.002,-1.401 -0.005,-2.095 l -0.033,-2.903 c -0.015,-1.528 -0.007,-3.064 0,-4.607 0.005,-1.311 0.013,-2.623 0.005,-3.941 l -0.01,-1.083 c -0.035,-2.841 -0.057,-5.684 -0.08,-8.528 -0.005,-1.235 -0.01,-2.472 -0.01,-3.71 0,-0.939 0.033,-1.894 0.065,-2.816 l 0.035,-1.022 c 0.033,-1.225 0.06,-2.455 0.088,-3.683 l 0.035,-1.936 c 0.003,-0.203 0.01,-0.404 0.018,-0.604 0.01,-0.273 0.02,-0.544 0.015,-0.817 -0.003,-0.305 0.122,-0.604 0.355,-0.837 0.251,-0.255 0.604,-0.405 1.013,-0.405 h 0.002 c 0.338,0.022 0.664,0.18 0.902,0.438 0.21,0.246 0.316,0.544 0.316,0.937 0.005,0.185 0.012,0.368 0.022,0.551 0.008,0.186 0.015,0.371 0.023,0.556 l 0.002,0.131 c 0.015,0.451 0.03,0.907 0.04,1.355 0.015,0.641 0.035,1.28 0.055,1.919 l 0.03,0.924 c 0.02,0.544 0.043,1.085 0.068,1.626 0.058,1.323 0.118,2.691 0.133,4.039 0.02,1.521 0.022,3.039 0.025,4.557 0,0.995 0.002,1.992 0.01,2.986 0.007,1.323 0.005,2.651 0.002,3.976 -0.002,1.115 -0.002,2.232 0.003,3.345 0.022,1.157 0.04,2.31 0.05,3.472 l 0.013,1.283 c 0.01,0.624 0.015,1.257 0.017,1.891 l 0.12,-0.376 -0.105,2.17 c -0.01,0.18 0,0.363 0.033,0.651 -0.003,0.026 -0.005,0.051 -0.008,0.078 l 0.02,-0.005 c 0.01,0.05 0.018,0.098 0.028,0.148 0.02,0.085 0.037,0.168 0.055,0.255 l -0.14,0.03 c -0.005,0.031 -0.005,0.058 -0.008,0.088 -0.025,0.228 -0.037,0.469 -0.045,0.709 -0.003,0.075 -0.01,0.151 -0.008,0.226 0,0.077 0.008,0.16 0.016,0.243 0.01,0.102 0.025,0.21 0.042,0.323 0.008,0.042 0.013,0.078 0.02,0.125 -0.005,0.221 -0.01,0.444 0,0.662 l 0.03,0.606 -0.027,-0.02 c 0.007,0.882 0.012,1.763 0.017,2.65 0.005,1.01 0.008,2.025 0.018,3.044 v 0.166 c 0.027,1.994 0.007,4.118 -0.06,6.493 -0.005,0.253 -0.018,0.506 -0.03,0.762 -0.013,0.255 -0.026,0.511 -0.031,0.764 -0.012,0.531 -0.012,1.065 -0.012,1.591 l 0.002,0.458 c 0.003,0.396 0.005,0.79 -0.007,1.18 l -0.003,0.093 c -0.005,0.2 -0.012,0.406 -0.037,0.609 0.163,0.085 0.308,0.2 0.421,0.343 0.213,0.271 0.305,0.606 0.263,0.952 -0.043,0.343 -0.223,0.656 -0.486,0.857 -0.241,0.19 -0.536,0.283 -0.885,0.273 L 26.22,4.003 26.185,3.996 c -0.077,-0.005 -0.168,-0.01 -0.273,0 -0.138,0.005 -0.331,-0.005 -0.531,-0.018 h -0.058 c -0.175,0.015 -0.345,0.03 -0.511,0.03 -0.13,0 -0.255,-0.007 -0.383,-0.012 0.346,0.361 0.516,1.007 0.085,2.195 -0.952,2.134 -1.769,4.226 -2.515,6.428 -0.506,1.077 -0.817,2.255 -1.117,3.392 -0.196,0.744 -0.399,1.513 -0.654,2.253 -0.336,1.019 -0.642,2.066 -0.94,3.081 -0.736,2.525 -1.5,5.136 -2.773,7.488 -0.283,0.81 -0.659,1.694 -1.123,2.388 0.01,0.208 0.018,0.413 0.023,0.616 0.008,0.218 0.013,0.434 0.023,0.647 0.08,1.623 0.072,3.274 0.065,4.867 -0.008,1.884 -0.018,3.833 0.117,5.742 0.056,0.697 -0.002,1.371 -0.06,2.025 -0.04,0.468 -0.08,0.952 -0.077,1.42 0.015,0.817 -0.015,1.644 -0.045,2.445 -0.041,1.105 -0.086,2.248 0,3.377 l 0.005,0.284 c 0.01,0.603 0.022,1.23 -0.211,1.833 -0.273,0.569 -0.797,0.87 -1.38,0.787 C 13.218,55.176 12.717,54.67 12.607,54.014 11.85,50.233 11.792,46.393 11.84,43.414 11.254,43.364 10.72,43.056 10.264,42.74 9.668,42.582 9.149,42.116 8.931,41.543 8.771,41.122 8.796,40.691 8.999,40.315 8.881,40.137 8.753,39.957 8.623,39.776 8.017,38.93 7.33,37.968 7.506,36.805 c 0.07,-0.396 0.305,-0.746 0.664,-0.989 0.273,-0.183 0.588,-0.284 0.899,-0.289 0.075,-0.518 0.368,-0.982 0.834,-1.295 0.484,-0.33 1.085,-0.441 1.639,-0.313 0.108,-0.586 0.19,-1.19 0.273,-1.779 0.043,-0.323 0.093,-0.649 0.143,-0.977 C 11.687,30.717 11.429,30.166 11.186,29.49 10.176,26.559 9.385,23.515 8.616,20.568 8.037,18.341 7.436,16.039 6.747,13.794 6.684,13.559 6.579,13.198 6.446,12.742 5.043,7.934 4.236,4.402 4.83,3.036 4.011,2.979 3.232,2.914 2.593,2.854 2.042,2.798 1.498,2.748 0.952,2.698 0.782,2.681 0.609,2.661 0.438,2.638 0.241,2.613 0.045,2.59 -0.14,2.575 -0.331,2.568 -0.646,2.47 -0.904,2.22 -1.157,1.982 -1.303,1.646 -1.303,1.295 -1.303,0.944 -1.142,0.586 -0.874,0.333 -0.626,0.1 -0.321,-0.02 0,0 M 22.044,3.901 21.41,3.881 C 20.984,3.868 20.561,3.856 20.135,3.833 19.734,3.816 19.336,3.785 18.935,3.758 L 18.349,3.715 C 17.56,3.67 16.773,3.63 15.984,3.59 15.034,3.542 14.087,3.495 13.143,3.437 13.035,3.43 12.825,3.42 12.614,3.402 L 12.341,3.392 C 11.662,3.35 10.893,3.325 10.104,3.297 L 9.277,3.269 C 8.608,3.244 7.937,3.209 7.265,3.172 L 7.135,3.167 C 7.361,3.6 7.501,4.131 7.621,4.6 c 0.053,0.208 0.103,0.403 0.158,0.573 0.18,0.622 0.351,1.246 0.519,1.872 0.137,0.501 0.273,1.002 0.413,1.498 1.904,6.221 3.47,12.639 4.98,18.85 0.674,-1.639 1.21,-3.345 1.732,-5.001 0.578,-1.849 1.177,-3.758 1.954,-5.539 0.937,-3.352 2.345,-6.571 3.71,-9.685 C 21.5,6.223 21.914,5.279 22.32,4.322 22.39,4.166 22.497,4.036 22.625,3.926 22.43,3.918 22.237,3.908 22.044,3.901" /></g><g
           transform="translate(263.7518,271.7955)"
           id="g28"><path
             id="path30"
             style="fill:#f89e79;fill-opacity:1;fill-rule:nonzero;stroke:none"
             d="M 0,0 C -0.288,0.431 -0.852,0.674 -1.383,0.611 -1.914,0.546 -2.332,0.203 -2.54,-0.361 -3.202,-2.966 -3.159,-5.7 -2.42,-8.267 l 0.012,-0.038 c 0.208,-0.468 0.664,-0.749 1.178,-0.749 0.083,0 0.165,0.007 0.25,0.022 0.609,0.106 1.045,0.572 1.09,1.185 -0.027,0.85 -0.007,1.719 0.01,2.558 0.028,1.301 0.055,2.641 -0.077,3.964 C 0.271,-0.862 0.258,-0.383 0,0" /></g><g
           transform="translate(174.2234,185.3609)"
           id="g32"><path
             id="path34"
             style="fill:#f89e79;fill-opacity:1;fill-rule:nonzero;stroke:none"
             d="M 0,0 C 0.01,0.263 0.028,0.554 0.045,0.867 0.198,3.342 0.428,7.082 -2.738,7.35 -3.47,7.233 -4.154,6.992 -4.81,6.692 c 0.067,0.127 0.115,0.27 0.135,0.431 1.015,0.653 2.19,1.074 3.327,1.48 0.937,0.336 1.907,0.682 2.796,1.158 0.772,0.403 1.521,0.859 2.247,1.302 0.682,0.414 1.388,0.845 2.085,1.215 0.771,0.351 0.922,1.128 0.671,1.714 C 6.206,14.578 5.542,15.009 4.76,14.701 3.725,14.3 2.776,13.724 1.856,13.17 1.363,12.87 0.869,12.572 0.343,12.288 -0.095,12.013 -0.944,11.7 -1.929,11.336 -4.064,10.55 -6.722,9.573 -7.283,8.152 -7.453,7.726 -7.431,7.285 -7.215,6.847 -7.015,6.298 -6.556,6.058 -6.105,6.023 -6.439,5.832 -6.767,5.637 -7.092,5.441 -8.047,4.868 -9.034,4.274 -10.089,3.901 -10.515,3.713 -11.013,3.74 -11.544,3.765 c -0.772,0.041 -1.634,0.083 -2.255,-0.623 -1.36,-0.366 -1.243,-2.3 -1.165,-3.593 0.017,-0.263 0.032,-0.504 0.032,-0.699 0.003,-0.283 -0.022,-0.571 -0.045,-0.862 -0.057,-0.714 -0.115,-1.45 0.186,-2.152 l 0.005,-0.015 c 0.213,-0.423 0.651,-0.676 1.155,-0.676 0.027,0 0.057,0 0.085,0.002 0.473,0.028 0.884,0.271 1.1,0.642 h 0.062 l 0.043,0.23 c 0.173,0.937 0.228,1.907 0.283,2.844 0.04,0.711 0.083,1.443 0.175,2.154 2.408,-0.321 4.452,0.912 6.424,2.105 0.824,0.498 1.674,1.012 2.528,1.395 0.328,-1 0.293,-2.044 0.255,-3.144 C -2.691,0.962 -2.703,0.554 -2.698,0.145 -2.683,-0.711 -2.027,-1.14 -1.421,-1.177 -0.824,-1.213 -0.123,-0.872 0,0" /></g><g
           transform="translate(163.4274,195.9698)"
           id="g36"><path
             id="path38"
             style="fill:#f89e79;fill-opacity:1;fill-rule:nonzero;stroke:none"
             d="m 0,0 0.018,-0.01 c 0.235,-0.133 0.448,-0.193 0.646,-0.193 0.671,0 1.167,0.679 1.721,1.436 0.684,0.939 1.536,2.104 3.077,2.748 0.536,0.055 1.027,0.063 1.5,0.073 1.418,0.025 2.641,0.047 4.091,1.242 1.318,0.769 2.343,1.874 3.332,2.944 0.288,0.311 0.577,0.621 0.862,0.914 0.596,0.561 0.476,1.348 0.05,1.837 -0.428,0.491 -1.2,0.719 -1.836,0.203 C 12.847,10.695 12.273,10.101 11.717,9.528 10.607,8.375 9.457,7.185 7.939,6.737 4.943,7.183 1.972,5.857 0.341,3.345 L 0.2,3.122 C -0.346,2.267 -1.258,0.839 0,0" /></g><g
           transform="translate(184.5019,208.9933)"
           id="g40"><path
             id="path42"
             style="fill:#f89e79;fill-opacity:1;fill-rule:nonzero;stroke:none"
             d="M 0,0 -0.263,-0.093 C -1.07,-0.373 -2.175,-0.757 -2.4,-1.536 -2.493,-1.856 -2.423,-2.197 -2.197,-2.55 l -0.038,-0.043 0.208,-0.195 c 0.261,-0.248 0.599,-0.386 0.935,-0.386 h 0.047 l 0.023,0.002 c 2.207,0.268 4.136,1.291 6.005,2.28 1.318,0.699 2.683,1.421 4.156,1.879 C 9.457,1.117 9.708,1.37 9.843,1.699 9.976,2.024 9.976,2.393 9.841,2.711 9.578,3.314 8.896,3.643 8.277,3.462 6.186,2.866 4.249,2.067 2.535,1.092 1.711,0.674 0.827,0.318 0,0" /></g><g
           transform="translate(205.3664,213.9593)"
           id="g44"><path
             id="path46"
             style="fill:#f89e79;fill-opacity:1;fill-rule:nonzero;stroke:none"
             d="M 0,0 C 0.13,0.777 -0.413,1.29 -0.975,1.443 -1.531,1.591 -2.26,1.423 -2.533,0.699 -2.716,0.258 -2.884,-0.193 -3.051,-0.646 c -0.168,-0.456 -0.336,-0.912 -0.527,-1.361 -0.581,-0.556 -1.395,-0.694 -2.254,-0.842 -0.604,-0.102 -1.23,-0.207 -1.797,-0.476 -1.455,-0.721 -2.247,-2.054 -3.011,-3.342 -0.486,-0.819 -0.987,-1.663 -1.628,-2.297 -1.864,-1.513 -4.37,-3.269 -7.231,-3.435 -1.152,-0.11 -2.322,0.05 -3.414,0.196 -0.629,-0.045 -1.045,-0.591 -1.135,-1.133 -0.128,-1.693 2.092,-1.879 2.926,-1.949 h 0.007 c 0.031,-0.002 0.061,-0.002 0.091,-0.002 -0.043,-0.298 -0.068,-0.602 -0.058,-0.92 l 0.045,-0.388 c 0.173,-1.443 0.351,-2.931 0.769,-4.352 l 0.01,-0.032 c 0.241,-0.549 0.709,-0.784 1.173,-0.784 0.168,0 0.335,0.032 0.491,0.092 0.578,0.221 1.034,0.85 0.791,1.554 -0.047,0.633 -0.06,1.285 -0.07,1.914 -0.017,1.039 -0.045,2.107 -0.228,3.129 2.686,0.496 5.344,1.841 7.656,3.905 0.038,-1.791 0.208,-3.474 0.376,-4.857 v -0.005 c 0.111,-0.782 0.734,-1.12 1.303,-1.12 0.035,0 0.07,0 0.105,0.002 0.591,0.045 1.225,0.471 1.218,1.326 -0.118,1.132 -0.065,2.317 -0.015,3.464 0.07,1.651 0.14,3.358 -0.296,5.044 0.391,0.576 0.822,1.099 1.378,1.508 0.353,0.16 0.752,0.198 1.173,0.24 0.398,0.04 0.811,0.083 1.164,0.216 C -1.881,-4.923 -0.486,-3.071 0,0" /></g><g
           transform="translate(185.2071,187.4143)"
           id="g48"><path
             id="path50"
             style="fill:#f89e79;fill-opacity:1;fill-rule:nonzero;stroke:none"
             d="m 0,0 c -0.333,0.571 -1.035,0.812 -1.681,0.569 -1.636,-0.662 -3.257,-1.421 -4.82,-2.26 -0.396,-0.221 -0.757,-0.403 -1.08,-0.566 -1.854,-0.932 -2.56,-1.423 -1.428,-4.244 0.205,-0.524 0.701,-0.845 1.273,-0.845 0.07,0 0.14,0.006 0.213,0.016 0.649,0.09 1.127,0.566 1.19,1.175 0.045,0.345 -0.008,0.661 -0.06,0.969 -0.013,0.078 -0.026,0.155 -0.038,0.233 2.007,0.864 3.883,1.927 5.947,3.122 C 0.143,-1.466 0.363,-0.626 0,0" /></g><g
           transform="translate(188.6875,189.5741)"
           id="g52"><path
             id="path54"
             style="fill:#f89e79;fill-opacity:1;fill-rule:nonzero;stroke:none"
             d="m 0,0 c -0.629,0.293 -1.288,0.225 -1.764,-0.183 -0.433,-0.371 -0.629,-0.954 -0.486,-1.45 0.141,-0.479 0.569,-0.81 1.18,-0.912 0.782,-0.416 1.047,-1.436 0.797,-3.009 -0.682,-3.079 -4.314,-5.276 -6.97,-6.88 l -0.155,-0.095 c -0.975,-0.483 -2.032,-0.962 -3.357,-1.518 -0.223,-0.125 -0.571,-0.268 -0.975,-0.434 -1.192,-0.491 -2.678,-1.102 -3.026,-2.069 -0.128,-0.353 -0.09,-0.716 0.103,-1.082 l 0.012,-0.02 c 0.311,-0.494 0.719,-0.659 1.148,-0.659 0.508,0 1.049,0.233 1.498,0.428 0.203,0.088 0.398,0.173 0.598,0.238 1.323,0.549 2.711,1.173 4.375,1.962 2.026,1.002 4.291,2.357 6.125,4.043 0.085,-1.833 0.516,-3.825 1.04,-5.338 l 0.007,-0.018 c 0.238,-0.559 0.707,-0.797 1.173,-0.797 0.185,0 0.371,0.038 0.543,0.108 0.592,0.246 1.028,0.892 0.739,1.661 -0.077,0.707 -0.15,1.416 -0.225,2.127 -0.17,1.661 -0.346,3.377 -0.604,5.038 l -0.075,0.451 c 0.411,0.769 0.709,1.581 0.854,2.44 C 3.054,-3.688 2.458,-0.844 0,0" /></g><g
           transform="translate(213.363,196.8655)"
           id="g56"><path
             id="path58"
             style="fill:#f89e79;fill-opacity:1;fill-rule:nonzero;stroke:none"
             d="M 0,0 C 0.1,0.386 0.103,0.747 0.05,1.095 0.17,1.107 0.296,1.122 0.398,1.132 0.556,-1.17 0.448,-3.507 0.075,-5.847 0.065,-6.09 0.018,-6.396 -0.033,-6.722 -0.22,-7.937 -0.479,-9.598 1.032,-9.941 L 1.06,-9.943 c 0.075,-0.013 0.148,-0.016 0.218,-0.016 1.117,0 1.39,1.241 1.558,2.002 l 0.03,0.133 c 0.323,1.566 0.621,3.257 0.616,5.021 -0.017,0.375 -0.015,0.811 -0.01,1.277 C 3.487,0.328 3.507,2.638 2.272,3.66 1.701,4.136 0.917,4.279 -0.065,4.086 -0.298,4.036 -0.654,4.003 -1.032,3.968 -1.1,3.961 -1.172,3.953 -1.243,3.948 c -0.273,0.574 -0.438,1.153 -0.29,1.779 0.32,1.208 1.523,1.423 2.796,1.649 0.548,0.097 1.115,0.197 1.573,0.38 1.408,0.409 2.037,0.762 2.495,1.02 0.712,0.398 0.9,0.506 3.603,0.065 1.728,-0.183 3.272,0.636 4.119,2.195 0.726,1.34 0.724,2.848 -0.01,3.753 -0.386,0.473 -1.321,1.182 -3.3,0.588 C 8.135,14.698 5.915,13.488 4.427,11.557 3.337,11.011 2.124,10.72 0.952,10.437 -0.065,10.191 -1.117,9.938 -2.142,9.498 -3.365,8.726 -4.139,7.631 -4.379,6.326 -4.567,5.319 -4.432,4.214 -4.018,3.124 -4.096,3.041 -4.161,2.954 -4.209,2.856 -4.404,2.453 -4.319,1.962 -3.938,1.375 -3.743,1.135 -3.377,1.012 -2.901,0.96 -2.798,-1.032 -4.963,-2.716 -6.316,-3.42 -7.348,-4.023 -7.962,-3.7 -8.613,-3.355 -9.207,-3.039 -9.881,-2.683 -10.7,-3.37 l -0.053,-0.057 c -0.333,-0.486 -0.654,-0.99 -0.977,-1.493 -1.177,-1.844 -2.395,-3.748 -4.309,-4.936 -0.659,-0.491 -1.35,-0.669 -2.057,-0.526 l -0.062,0.013 -0.063,-0.015 c -0.914,-0.231 -1.175,-0.882 -1.112,-1.411 0.08,-0.696 0.736,-1.425 1.693,-1.445 0.163,-0.018 0.323,-0.028 0.484,-0.028 1.293,0 2.518,0.564 3.62,1.398 -0.306,-1.892 -0.371,-3.796 -0.396,-5.624 -0.012,-0.832 0.639,-1.308 1.29,-1.348 0.033,-0.003 0.063,-0.005 0.096,-0.005 0.601,0 1.255,0.355 1.347,1.185 0.158,2.262 0.376,4.221 0.664,6.002 0.08,0.627 0.293,1.268 0.499,1.884 0.293,0.885 0.589,1.799 0.541,2.799 0.125,0.225 0.243,0.446 0.343,0.651 1.463,-0.576 3.072,-0.441 4.67,0.398 C -2.252,-4.758 -0.408,-2.31 0,0 m 9.46,11.785 c 0.303,0.235 0.614,0.463 0.944,0.656 -0.2,-0.335 -0.511,-0.601 -0.944,-0.656" /></g><g
           transform="translate(200.8135,197.1007)"
           id="g60"><path
             id="path62"
             style="fill:#f89e79;fill-opacity:1;fill-rule:nonzero;stroke:none"
             d="m 0,0 c -0.99,-0.398 -1.851,-1.027 -2.563,-1.588 -0.353,-0.278 -0.691,-0.574 -1.03,-0.867 -0.388,-0.338 -0.789,-0.687 -1.205,-0.997 -0.659,-0.261 -1.109,-0.757 -1.182,-1.298 -0.063,-0.466 0.16,-0.912 0.631,-1.253 l 0.045,-0.027 c 0.203,-0.095 0.426,-0.141 0.667,-0.141 1.428,0 3.397,1.561 4.895,2.749 0.476,0.376 0.889,0.704 1.198,0.909 0.704,0.501 0.678,1.323 0.358,1.877 C 1.491,-0.078 0.782,0.358 0,0" /></g><g
           transform="translate(209.7895,174.9447)"
           id="g64"><path
             id="path66"
             style="fill:#f89e79;fill-opacity:1;fill-rule:nonzero;stroke:none"
             d="m 0,0 c 0.441,0.073 0.807,0.346 0.99,0.734 0.17,0.195 0.373,0.373 0.588,0.561 0.111,0.093 0.218,0.188 0.326,0.288 1.055,1.007 2.242,1.912 3.39,2.784 l 0.877,0.691 c 0.653,0.519 1.327,1.055 1.991,1.533 l 0.156,0.093 c 0.749,0.441 2.004,1.18 1.3,2.433 C 9.407,9.465 9.107,9.673 8.723,9.733 7.283,9.969 4.958,7.982 3.259,6.531 2.698,6.053 2.215,5.637 1.899,5.434 1.771,5.326 1.608,5.193 1.421,5.046 0.286,4.144 -1.426,2.778 -1.546,1.483 -1.581,1.08 -1.463,0.717 -1.19,0.403 l 0.003,-0.002 c 0.243,-0.271 0.591,-0.421 0.959,-0.421 0.075,0 0.15,0.007 0.228,0.02" /></g><g
           transform="translate(225.5828,190.8558)"
           id="g68"><path
             id="path70"
             style="fill:#f89e79;fill-opacity:1;fill-rule:nonzero;stroke:none"
             d="m 0,0 -0.075,-0.053 c -1.842,-1.292 -4.287,-3.179 -4.239,-4.602 0.007,-0.283 0.125,-0.686 0.629,-0.994 l 0.01,-0.008 c 0.223,-0.12 0.466,-0.178 0.706,-0.178 0.441,0 0.872,0.193 1.143,0.541 0.679,0.476 1.31,1.017 1.921,1.544 0.549,0.471 1.115,0.957 1.714,1.393 0.751,0.588 0.694,1.483 0.25,2.061 C 1.611,0.286 0.759,0.571 0,0" /></g><g
           transform="translate(232.9852,196.75)"
           id="g72"><path
             id="path74"
             style="fill:#f89e79;fill-opacity:1;fill-rule:nonzero;stroke:none"
             d="M 0,0 C -0.188,-0.183 -0.511,-0.418 -0.852,-0.666 -1.796,-1.355 -2.969,-2.21 -2.976,-3.147 -2.979,-3.56 -2.758,-3.933 -2.325,-4.256 L -2.3,-4.274 c 0.253,-0.15 0.541,-0.21 0.822,-0.178 v -0.083 l 0.403,0.188 c 0.93,0.429 1.759,1.035 2.561,1.621 0.378,0.273 0.754,0.549 1.127,0.797 1.491,0.887 2.891,1.937 4.246,2.951 0.617,0.461 1.233,0.922 1.847,1.363 1.508,0.962 2.798,1.927 3.938,2.954 C 13.05,5.7 13.17,6.283 12.952,6.824 12.729,7.381 12.261,7.726 11.647,7.704 10.991,7.631 10.5,7.22 10.021,6.824 9.826,6.662 9.63,6.501 9.407,6.353 8.656,5.767 7.832,5.246 7.035,4.742 6.521,4.417 6.008,4.091 5.494,3.735 4.211,2.741 2.833,1.849 1.498,0.985 1.012,0.671 0.526,0.356 0,0" /></g><g
           transform="translate(263.1864,209.4949)"
           id="g76"><path
             id="path78"
             style="fill:#f89e79;fill-opacity:1;fill-rule:nonzero;stroke:none"
             d="M 0,0 C 0.96,0.581 1.952,1.182 2.813,1.992 3.51,2.781 4.267,3.535 4.998,4.264 5.299,4.56 5.597,4.858 5.88,5.146 6.125,5.369 6.266,5.687 6.273,6.038 6.281,6.409 6.14,6.764 5.877,7.022 4.935,7.864 3.968,7.06 3.262,6.471 3.069,6.311 2.884,6.155 2.663,6.003 0.371,3.693 -2.175,1.967 -4.925,0.859 -5.314,0.661 -5.747,0.739 -6.201,0.822 c -0.488,0.09 -1.042,0.19 -1.631,-0.108 -0.937,-0.757 -1.6,-1.769 -2.244,-2.748 -0.429,-0.654 -0.872,-1.328 -1.378,-1.894 -0.862,-0.892 -2.024,-1.686 -3.37,-2.303 -0.756,0.266 -1.383,-0.17 -1.661,-0.716 -0.315,-0.621 -0.233,-1.486 0.541,-1.934 l 0.035,-0.018 c 0.374,-0.15 0.747,-0.215 1.118,-0.215 1.363,0 2.688,0.879 3.8,1.618 l 0.339,0.223 c 1.984,1.31 3.159,3.49 4.093,5.301 2.004,-0.511 4.024,0.454 5.92,1.581 C -0.426,-0.258 -0.213,-0.13 0,0" /></g><g
           transform="translate(246.0094,206.5419)"
           id="g80"><path
             id="path82"
             style="fill:#f89e79;fill-opacity:1;fill-rule:nonzero;stroke:none"
             d="m 0,0 0.03,-0.015 c 0.158,-0.068 0.326,-0.1 0.494,-0.1 0.466,0 0.929,0.253 1.177,0.681 0.423,0.326 0.877,0.634 1.318,0.932 l 0.27,0.183 c 3.305,2.039 6.281,3.893 9.21,5.918 0.589,0.34 0.994,0.839 1.092,1.327 0.068,0.356 -0.02,0.709 -0.26,1.02 -0.409,0.531 -1.173,0.679 -1.722,0.348 C 11.229,10.101 10.84,9.923 10.452,9.746 9.705,9.402 8.931,9.044 8.215,8.598 7.486,8.145 6.774,7.641 6.088,7.158 5.211,6.536 4.304,5.897 3.365,5.361 3.325,5.339 -0.752,3.107 -0.787,1.23 -0.794,0.884 -0.664,0.388 0,0" /></g><g
           transform="translate(223.0033,177.4463)"
           id="g84"><path
             id="path86"
             style="fill:#f89e79;fill-opacity:1;fill-rule:nonzero;stroke:none"
             d="m 0,0 c -1.045,-0.045 -2.28,-1.097 -3.274,-1.944 -0.213,-0.183 -0.411,-0.351 -0.584,-0.489 -1.406,-1.094 -3.014,-1.974 -4.57,-2.823 -0.704,-0.383 -1.405,-0.769 -2.074,-1.163 -0.629,-0.313 -1.268,-0.613 -1.902,-0.914 -0.36,-0.17 -0.719,-0.338 -1.089,-0.519 -0.401,-0.22 -0.649,-0.656 -0.649,-1.137 0,-0.478 0.25,-0.914 0.649,-1.132 l 0.055,-0.023 c 0.233,-0.068 0.483,-0.1 0.746,-0.1 1.989,0 4.778,1.749 6.527,2.843 l 0.423,0.268 c 1.784,0.815 3.254,2.072 4.677,3.29 0.569,0.486 1.155,0.989 1.746,1.45 C 1.11,-2.082 1.293,-1.531 1.15,-0.99 1.005,-0.446 0.569,-0.058 0,0" /></g><g
           transform="translate(242.2602,179.8578)"
           id="g88"><path
             id="path90"
             style="fill:#f89e79;fill-opacity:1;fill-rule:nonzero;stroke:none"
             d="m 0,0 c 0.564,1.305 0.804,2.718 1.04,4.086 0.105,0.621 0.21,1.24 0.348,1.852 0.341,1.568 0.396,2.813 0.19,3.928 1.027,1.633 2.385,3.417 5.803,5.073 0.313,0.178 0.538,0.474 0.633,0.832 0.098,0.361 0.048,0.746 -0.14,1.067 -0.2,0.326 -0.478,0.534 -0.822,0.614 C 6.163,17.66 5.061,16.971 4.174,16.417 3.941,16.272 3.728,16.139 3.522,16.026 2.024,14.987 0.481,13.832 -0.479,12.153 -2.32,8.723 -2.859,8.623 -4.159,8.378 -4.94,8.232 -6.01,8.032 -7.709,7.108 -8.493,6.672 -9.172,6.09 -9.828,5.529 -10.367,5.068 -10.923,4.592 -11.517,4.214 -12.075,3.873 -12.612,3.497 -13.13,3.134 -14.062,2.483 -15.027,1.809 -16.106,1.343 -16.74,1.461 -17.312,1.27 -17.68,0.814 c -0.353,-0.438 -0.436,-1.034 -0.21,-1.52 0.24,-0.512 0.784,-0.812 1.495,-0.825 h 0.008 0.01 c 0.138,0.008 0.278,0.033 0.416,0.053 -0.053,-1.355 -0.025,-3.154 0.854,-3.791 l 0.013,-0.01 c 0.198,-0.125 0.421,-0.188 0.651,-0.188 0.268,0 0.541,0.086 0.779,0.256 0.449,0.316 0.654,0.822 0.544,1.273 -0.025,0.443 0,0.894 0.027,1.373 0.035,0.686 0.071,1.388 -0.052,2.089 0.922,0.511 1.809,1.137 2.643,1.731 0.538,0.386 1.05,0.747 1.573,1.085 0.341,0.281 0.677,0.579 1.012,0.877 1.045,0.927 2.122,1.886 3.385,2.345 0.265,0.04 0.534,0.057 0.802,0.075 0.548,0.037 1.114,0.075 1.681,0.303 0.02,0.01 0.037,0.02 0.057,0.03 C -2.057,5.482 -2.127,4.986 -2.22,4.487 -2.245,4.256 -2.277,4.023 -2.307,3.793 -2.405,3.031 -2.508,2.247 -2.51,1.488 -2.563,1.045 -2.583,0.531 -2.345,0.063 c 0.203,-0.441 0.646,-0.724 1.16,-0.739 h 0.043 c 0.486,0 0.917,0.248 1.142,0.676" /></g><g
           transform="translate(256.7766,203.4063)"
           id="g92"><path
             id="path94"
             style="fill:#f89e79;fill-opacity:1;fill-rule:nonzero;stroke:none"
             d="m 0,0 c -0.884,-0.431 -1.245,-1.801 -1.536,-2.904 -0.095,-0.36 -0.185,-0.701 -0.293,-1.004 -0.037,-0.253 -0.14,-0.619 -0.26,-1.042 -0.336,-1.193 -0.754,-2.676 -0.263,-3.53 0.167,-0.299 0.433,-0.496 0.781,-0.587 0.12,-0.035 0.243,-0.05 0.363,-0.05 0.549,0 1.065,0.326 1.291,0.855 0.295,0.719 0.528,1.463 0.754,2.184 0.112,0.356 0.223,0.712 0.345,1.07 0.223,0.709 0.376,1.418 0.527,2.167 0.208,0.576 0.759,2.104 -0.411,2.811 C 0.822,0.175 0.383,0.188 0,0" /></g><g
           transform="translate(259.5044,183.3983)"
           id="g96"><path
             id="path98"
             style="fill:#f89e79;fill-opacity:1;fill-rule:nonzero;stroke:none"
             d="m 0,0 c 3.307,-0.511 4.059,1.175 4.933,3.122 0.275,0.613 0.561,1.25 0.972,1.946 0.381,1.017 0.829,1.178 1.506,1.426 0.365,0.132 0.781,0.283 1.25,0.591 1.41,0.947 2.673,2.33 3.863,4.224 0.476,0.153 0.839,0.453 1.032,0.852 0.173,0.365 0.185,0.776 0.033,1.127 l -0.04,0.088 -0.086,0.045 c -0.03,0.017 -0.06,0.037 -0.09,0.055 l -0.067,0.043 c -0.203,0.127 -0.384,0.265 -0.557,0.415 l -0.065,0.058 -0.085,0.01 C 11.96,14.082 10.585,13.829 8.546,11.206 7.183,9.402 6.378,9.039 5.669,8.718 4.502,8.192 3.655,7.809 1.606,2.756 1.31,2.731 0.995,2.741 0.631,2.756 -0.09,2.778 -0.832,2.801 -1.498,2.322 -2.58,1.513 -3.199,0.366 -3.798,-0.742 -4.124,-1.343 -4.459,-1.964 -4.85,-2.495 c -1.27,-1.518 -2.964,-2.606 -4.6,-3.66 -1.035,-0.664 -2.104,-1.353 -3.084,-2.158 -0.281,-0.255 -1.047,-0.593 -1.856,-0.954 -1.737,-0.772 -3.706,-1.646 -3.876,-2.798 -0.065,-0.439 0.133,-0.862 0.586,-1.256 l 0.06,-0.037 c 0.198,-0.1 0.411,-0.148 0.652,-0.148 0.651,0 1.292,0.383 1.914,0.757 0.333,0.2 0.646,0.388 0.934,0.496 1.812,0.741 3.465,1.683 4.888,2.783 C -3.733,-6.09 -3.227,-5.271 0,0" /></g><g
           transform="translate(268.9731,176.2129)"
           id="g100"><path
             id="path102"
             style="fill:#f89e79;fill-opacity:1;fill-rule:nonzero;stroke:none"
             d="M 0,0 C -0.223,1.265 -0.474,2.698 -1.488,3.678 -2.823,4.637 -4.191,3.605 -5.291,2.776 -5.662,2.498 -6.01,2.235 -6.348,2.047 c -1.651,-1.077 -3.332,-2.37 -4.62,-3.555 -0.158,-0.156 -0.396,-0.358 -0.669,-0.589 -1.125,-0.954 -2.661,-2.26 -2.47,-3.37 0.077,-0.468 0.443,-0.829 1.085,-1.072 l 0.057,-0.017 c 0.063,-0.008 0.125,-0.013 0.186,-0.013 0.618,0 1.024,0.479 1.19,0.687 1.901,1.377 3.747,2.883 5.531,4.339 0.992,0.806 1.984,1.616 2.989,2.407 0.035,-0.14 0.068,-0.283 0.103,-0.423 0.122,-0.514 0.253,-1.047 0.418,-1.561 0.246,-0.822 0.99,-1.065 1.581,-0.942 0.586,0.12 1.172,0.639 1.067,1.508 C 0.065,-0.373 0.033,-0.188 0,0" /></g><g
           transform="translate(292.4175,201.6879)"
           id="g104"><path
             id="path106"
             style="fill:#f89e79;fill-opacity:1;fill-rule:nonzero;stroke:none"
             d="M 0,0 C 1.601,3.229 3.66,5.504 6.133,6.767 6.882,7.195 6.932,7.984 6.659,8.536 6.373,9.119 5.674,9.538 4.923,9.222 3.167,8.596 1.761,7.393 0.496,6.186 -1.754,3.938 -2.896,0.922 -3.856,-1.937 -4.818,-3.78 -6.253,-5.354 -7.641,-6.872 l -0.048,-0.053 c -1.23,-1.458 -2.608,-1.688 -4.068,-1.931 -1.774,-0.298 -3.605,-0.604 -5.206,-3.027 -0.559,-0.631 -0.912,-1.387 -1.255,-2.122 -0.371,-0.794 -0.722,-1.545 -1.286,-2.104 l -0.659,-0.519 c -0.704,-0.558 -1.433,-1.132 -2.182,-1.638 -0.864,-0.093 -1.242,-0.767 -1.225,-1.37 0.018,-0.679 0.531,-1.406 1.443,-1.411 l 0.018,-0.002 0.015,0.002 c 1.393,0.153 3.051,1.175 5.083,3.147 0.606,0.711 1.052,1.613 1.483,2.482 0.814,1.639 1.584,3.187 3.257,3.636 4.525,0.18 5.983,1.864 8.398,4.652 0.268,0.308 0.546,0.631 0.852,0.977 1.202,1.451 1.876,3.202 2.527,4.898 C -0.328,-0.829 -0.163,-0.403 0,0" /></g><g
           transform="translate(280.6798,188.3047)"
           id="g108"><path
             id="path110"
             style="fill:#f89e79;fill-opacity:1;fill-rule:nonzero;stroke:none"
             d="m 0,0 c -0.544,-0.028 -1.005,-0.341 -1.185,-0.787 -0.273,-0.493 -0.228,-1.012 -0.188,-1.47 0.02,-0.218 0.038,-0.426 0.025,-0.632 -0.015,-0.305 -0.03,-0.611 -0.047,-0.917 -0.061,-1.089 -0.123,-2.214 -0.02,-3.332 0.072,-0.811 0.759,-1.182 1.365,-1.185 h 0.005 c 0.609,0 1.298,0.371 1.375,1.195 0.028,0.532 0.083,1.075 0.143,1.626 0.168,1.606 0.343,3.267 -0.243,4.833 C 0.997,-0.23 0.531,0.025 0,0" /></g><g
           transform="translate(295.7851,198.9461)"
           id="g112"><path
             id="path114"
             style="fill:#f89e79;fill-opacity:1;fill-rule:nonzero;stroke:none"
             d="m 0,0 c -0.626,0.286 -1.318,0.165 -1.846,-0.313 -0.534,-0.484 -0.772,-1.21 -0.582,-1.766 0.088,-0.266 0.351,-0.707 1.105,-0.832 0.093,-0.348 0.171,-0.699 0.248,-1.052 l 0.121,-0.534 c 0.117,-0.531 0.268,-1.067 0.415,-1.583 l 0.083,-0.291 v -0.002 c 0.195,-0.679 0.744,-0.957 1.255,-0.957 0.095,0 0.188,0.01 0.278,0.027 0.582,0.12 1.16,0.626 1.06,1.473 -0.05,0.323 -0.093,0.677 -0.135,1.047 C 1.806,-3.071 1.563,-0.939 0,0" /></g><g
           transform="translate(301.1147,190.6003)"
           id="g116"><path
             id="path118"
             style="fill:#f89e79;fill-opacity:1;fill-rule:nonzero;stroke:none"
             d="m 0,0 c -1.065,-0.363 -2.077,-0.879 -3.056,-1.378 -0.369,-0.188 -0.737,-0.376 -1.093,-0.549 -1.458,-0.606 -2.362,-2.029 -2.483,-3.933 0.008,-0.188 0.003,-0.401 -0.002,-0.624 -0.023,-1.032 -0.055,-2.442 1.255,-2.715 l 0.058,-0.008 h 0.007 c 1.606,0 1.619,1.503 1.629,2.711 0.005,0.576 0.01,1.17 0.173,1.548 0.423,0.411 0.989,0.634 1.59,0.869 0.419,0.163 0.855,0.334 1.221,0.562 0.531,0.258 1.082,0.591 1.615,0.914 L 1.2,-2.43 c 0.737,0.443 0.782,1.225 0.511,1.764 C 1.441,-0.123 0.787,0.318 0,0" /></g><g
           transform="translate(319.8795,202.8038)"
           id="g120"><path
             id="path122"
             style="fill:#f89e79;fill-opacity:1;fill-rule:nonzero;stroke:none"
             d="m 0,0 c 0.038,-0.005 0.083,-0.02 0.163,-0.13 0.14,-0.138 0.29,-0.318 0.453,-0.509 0.541,-0.641 1.218,-1.438 1.995,-1.455 0.363,-0.008 0.716,0.152 1.044,0.506 0.416,0.526 0.363,1.267 -0.113,1.746 C 3.347,0.391 3.169,0.639 2.991,0.889 2.613,1.418 2.222,1.967 1.628,2.372 -1.431,4.041 -4.099,0.834 -6.048,-1.506 -6.459,-1.997 -6.847,-2.46 -7.208,-2.846 -8.205,-3.973 -9.33,-5.011 -10.419,-6.015 l -0.532,-0.494 c -0.19,-0.195 -0.463,-0.335 -0.726,-0.473 -0.611,-0.316 -1.371,-0.712 -0.977,-1.877 l 0.022,-0.055 c 0.278,-0.468 0.672,-0.736 1.168,-0.794 0.067,-0.007 0.138,-0.013 0.208,-0.013 1.641,0 3.875,2.102 5.865,4.187 l 0.303,0.315 c 1.21,1.541 2.683,3.33 4.429,4.906 C -0.418,-0.105 -0.16,0.023 0,0" /></g><g
           transform="translate(323.9498,204.3387)"
           id="g124"><path
             id="path126"
             style="fill:#f89e79;fill-opacity:1;fill-rule:nonzero;stroke:none"
             d="m 0,0 0.008,-0.013 c 0.195,-0.343 0.493,-0.556 0.861,-0.618 0.076,-0.015 0.153,-0.02 0.231,-0.02 0.383,0 0.784,0.152 1.092,0.418 0.271,0.18 0.662,0.328 1.072,0.484 1.068,0.4 2.528,0.952 2.007,2.532 C 5.078,3.214 4.783,3.492 4.394,3.613 3.785,3.801 3.009,3.59 1.999,2.964 1.876,2.881 1.736,2.793 1.588,2.701 0.691,2.147 -0.661,1.31 0,0" /></g><g
           transform="translate(328.688,203.4283)"
           id="g128"><path
             id="path130"
             style="fill:#f89e79;fill-opacity:1;fill-rule:nonzero;stroke:none"
             d="m 0,0 c -2.267,-1.055 -4.186,-2.533 -5.755,-3.831 l -0.323,-0.238 c -2.042,-1.5 -4.111,-3.219 -3.986,-4.582 0.045,-0.483 0.354,-0.864 0.912,-1.132 l 0.04,-0.015 c 0.128,-0.04 0.248,-0.058 0.361,-0.058 0.526,0 0.897,0.379 1.208,0.692 0.11,0.112 0.22,0.223 0.35,0.33 0.772,0.717 1.664,1.343 2.528,1.949 0.639,0.451 1.3,0.915 1.917,1.418 1.37,1.133 2.793,2.21 4.231,3.207 0.689,0.499 0.634,1.283 0.293,1.802 C 1.415,0.085 0.681,0.413 0,0" /></g><g
           transform="translate(334.6349,208.7861)"
           id="g132"><path
             id="path134"
             style="fill:#f89e79;fill-opacity:1;fill-rule:nonzero;stroke:none"
             d="m 0,0 c -0.967,-0.606 -1.814,-1.373 -2.638,-2.119 -0.088,-0.083 -0.188,-0.173 -0.298,-0.271 -0.732,-0.654 -1.739,-1.548 -1.651,-2.453 0.04,-0.406 0.293,-0.751 0.751,-1.027 0.113,-0.08 0.246,-0.118 0.401,-0.118 0.937,0 2.618,1.421 4.8,3.533 0.173,0.165 0.311,0.298 0.409,0.388 0.593,0.574 0.473,1.368 0.047,1.854 C 1.39,0.276 0.619,0.499 0,0" /></g><g
           transform="translate(323.9613,193.2561)"
           id="g136"><path
             id="path138"
             style="fill:#f89e79;fill-opacity:1;fill-rule:nonzero;stroke:none"
             d="M 0,0 C -0.218,0.529 -0.734,0.844 -1.333,0.797 -1.917,0.754 -2.38,0.376 -2.523,-0.195 L -2.57,-0.524 c -0.158,-1.017 -0.354,-2.284 0.3,-3.191 l 0.025,-0.028 c 0.261,-0.278 0.619,-0.426 0.997,-0.426 0.191,0 0.386,0.038 0.577,0.115 0.563,0.233 0.917,0.757 0.899,1.336 -0.005,0.208 -0.003,0.421 0,0.634 C 0.236,-1.398 0.241,-0.686 0,0" /></g><g
           transform="translate(336.4527,202.0314)"
           id="g140"><path
             id="path142"
             style="fill:#f89e79;fill-opacity:1;fill-rule:nonzero;stroke:none"
             d="M 0,0 C 0.005,0.306 0.008,0.689 -0.258,1.005 -0.571,1.426 -1.09,1.603 -1.621,1.468 -2.16,1.33 -2.56,0.902 -2.648,0.373 -2.813,-0.028 -3.112,-0.96 -2.721,-1.674 c 0.146,-0.258 0.444,-0.588 1.06,-0.691 l 0.018,-0.002 c 0.065,-0.008 0.127,-0.011 0.19,-0.011 0.436,0 0.819,0.166 1.09,0.476 C 0.015,-1.471 0.15,-0.794 0,-0.198 -0.003,-0.133 0,-0.065 0,0" /></g><g
           transform="translate(316.3465,192.6113)"
           id="g144"><path
             id="path146"
             style="fill:#f89e79;fill-opacity:1;fill-rule:nonzero;stroke:none"
             d="m 0,0 c -1.33,0.291 -3.517,-1.077 -5.266,-2.302 l -0.148,-0.106 c -0.318,-0.255 -0.649,-0.506 -0.979,-0.759 -1.05,-0.799 -2.135,-1.626 -2.949,-2.695 L -9.39,-5.958 c -0.235,-0.839 -0.822,-1.475 -1.435,-2.147 -0.123,-0.1 -0.276,-0.052 -0.594,0.093 l -0.07,0.03 c -0.722,0.203 -1.285,-0.21 -1.523,-0.706 -0.299,-0.624 -0.128,-1.328 0.413,-1.716 0.529,-0.396 1.102,-0.597 1.688,-0.597 0.306,0 0.612,0.055 0.92,0.163 1.45,0.506 2.573,2.1 2.956,3.447 1.145,0.902 2.428,1.656 3.668,2.385 1.308,0.77 2.658,1.564 3.866,2.536 0.566,0.446 0.719,1.245 0.358,1.854 C 0.666,-0.291 0.378,-0.083 0,0" /></g><g
           transform="translate(310.8615,180.8537)"
           id="g148"><path
             id="path150"
             style="fill:#f89e79;fill-opacity:1;fill-rule:nonzero;stroke:none"
             d="m 0,0 h -0.033 c -0.195,0.471 -0.663,0.774 -1.225,0.782 h -0.015 c -0.646,0 -1.175,-0.401 -1.32,-1.028 -0.025,-0.177 -0.068,-0.433 -0.118,-0.736 -0.408,-2.485 -0.744,-4.961 0.023,-5.572 0.298,-0.303 0.699,-0.463 1.117,-0.463 0.218,0 0.444,0.042 0.659,0.132 0.636,0.266 1.037,0.86 1.017,1.499 0.01,0.431 0.03,0.864 0.048,1.3 0.057,1.265 0.118,2.575 -0.1,3.851 z" /></g><g
           transform="translate(299.8605,179.6569)"
           id="g152"><path
             id="path154"
             style="fill:#f89e79;fill-opacity:1;fill-rule:nonzero;stroke:none"
             d="m 0,0 c -1.137,-0.524 -2.626,-1.23 -4.074,-2.072 -1.345,-0.784 -2.773,-1.636 -4.146,-2.585 -0.338,-0.346 -0.441,-0.865 -0.263,-1.348 0.18,-0.491 0.594,-0.827 1.082,-0.875 0.058,-0.005 0.116,-0.007 0.173,-0.007 0.506,0 0.98,0.218 1.401,0.413 l 0.148,0.068 c 0.896,0.456 1.786,0.957 2.645,1.443 0.667,0.376 1.33,0.752 2.044,1.135 0.251,0.193 0.629,0.368 1.028,0.551 0.561,0.258 1.139,0.526 1.53,0.915 0.489,0.486 0.582,1.069 0.261,1.761 C 1.458,0.03 0.639,0.301 0,0" /></g><g
           transform="translate(283.039,209.8258)"
           id="g156"><path
             id="path158"
             style="fill:#f89e79;fill-opacity:1;fill-rule:nonzero;stroke:none"
             d="m 0,0 c -0.844,-1.182 -1.917,-2.235 -3.177,-3.122 -0.944,-0.603 -1.801,-1.132 -2.753,-1.458 -0.343,-0.117 -0.696,-0.2 -1.072,-0.285 -0.712,-0.163 -1.446,-0.331 -2.085,-0.764 -2.102,-1.401 -2.257,-3.994 -0.413,-6.94 l 0.012,-0.018 c 0.243,-0.33 0.612,-0.511 1.015,-0.511 0.098,0 0.196,0.01 0.296,0.03 0.541,0.116 0.967,0.524 1.085,1.043 0.115,0.526 -0.031,1.024 -0.171,1.51 -0.072,0.258 -0.145,0.501 -0.178,0.769 -0.16,0.674 -0.153,1.093 0.02,1.361 0.151,0.23 0.451,0.386 0.915,0.471 2.781,0.451 5.369,2.225 7.057,3.637 0.822,0.722 1.486,1.596 2.127,2.441 0.271,0.358 0.541,0.714 0.827,1.064 0.263,0.336 0.671,0.491 1.102,0.657 C 4.758,-0.058 4.905,0 5.041,0.06 5.81,0.376 5.99,1.142 5.832,1.721 5.672,2.297 5.121,2.864 4.302,2.738 2.352,2.433 1.022,1.586 0,0" /></g><g
           transform="translate(165.5286,215.6486)"
           id="g160"><path
             id="path162"
             style="fill:#f89e79;fill-opacity:1;fill-rule:nonzero;stroke:none"
             d="M 0,0 C 0.634,0 1.348,0.115 1.766,0.556 2.037,0.837 2.147,1.205 2.094,1.659 1.912,2.901 0.744,2.901 -0.158,2.808 -0.15,4.059 -0.301,5.306 -0.446,6.514 L -0.471,6.657 C -0.406,7.178 -0.664,7.691 -1.147,7.952 -1.709,8.172 -2.18,8.137 -2.538,7.849 -3.532,7.052 -3.292,4.545 -2.969,2.45 l 0.023,-0.155 c 0.185,-1.27 0.621,-2.428 2.553,-2.28 C -0.268,0.005 -0.135,0 0,0" /></g><g
           transform="translate(174.9575,224.7981)"
           id="g164"><path
             id="path166"
             style="fill:#f89e79;fill-opacity:1;fill-rule:nonzero;stroke:none"
             d="m 0,0 c -0.343,0.278 -0.779,0.348 -1.333,0.198 -0.566,-0.221 -0.922,-0.862 -0.829,-1.438 -0.068,-1.508 -0.103,-2.869 0.138,-4.204 0.007,-2.245 1.879,-2.302 3.384,-2.35 l 0.391,-0.015 h 0.005 c 0.917,0.003 1.401,0.717 1.401,1.421 0.002,0.706 -0.479,1.423 -1.398,1.428 l -0.531,0.005 c -0.171,0 -0.341,0 -0.511,0.002 0.007,0.17 0.017,0.366 0.03,0.584 C 0.827,-2.846 0.939,-0.762 0,0" /></g><g
           transform="translate(191.5863,217.9312)"
           id="g168"><path
             id="path170"
             style="fill:#f89e79;fill-opacity:1;fill-rule:nonzero;stroke:none"
             d="m 0,0 c 0.496,-0.013 1.057,-0.025 1.674,-0.138 h 0.005 c 0.077,-0.012 0.155,-0.02 0.23,-0.02 0.539,0 1.027,0.313 1.285,0.837 C 3.487,1.273 3.38,1.937 2.904,2.383 2.275,2.889 1.448,2.869 0.724,2.846 0.514,2.841 0.311,2.836 0.118,2.841 0.115,2.966 0.115,3.104 0.113,3.257 0.098,5.203 0.018,6.99 -0.842,7.506 -1.4,7.719 -1.864,7.694 -2.212,7.433 -3.056,6.799 -2.916,4.975 -2.811,3.643 -2.786,3.312 -2.763,3.024 -2.763,2.801 -2.605,0.063 -1.456,0.035 0,0" /></g><g
           transform="translate(213.9252,217.3983)"
           id="g172"><path
             id="path174"
             style="fill:#f89e79;fill-opacity:1;fill-rule:nonzero;stroke:none"
             d="m 0,0 c 0.241,-0.183 0.534,-0.283 0.824,-0.283 0.06,0 0.12,0.005 0.178,0.012 1.155,0.176 1.195,1.293 1.228,2.11 0.005,0.18 0.012,0.356 0.03,0.539 l 0.022,1.583 c 0.065,4.489 0.131,9.132 -0.198,13.726 -0.025,0.158 -0.02,0.324 -0.017,0.489 0.005,0.3 0.01,0.611 -0.113,0.927 -0.19,0.458 -0.626,0.764 -1.132,0.796 -0.509,0.033 -0.982,-0.21 -1.23,-0.641 L -0.438,19.19 C -0.889,17.565 -0.929,15.828 -0.97,14.15 -0.987,13.401 -1.007,12.627 -1.062,11.863 -1.027,7.949 -0.962,4.422 -0.519,0.887 -0.473,0.536 -0.291,0.223 0,0" /></g><g
           transform="translate(233.1483,221.5052)"
           id="g176"><path
             id="path178"
             style="fill:#f89e79;fill-opacity:1;fill-rule:nonzero;stroke:none"
             d="m 0,0 c 0.03,0 0.063,0 0.093,0.003 0.611,0.04 1.275,0.478 1.285,1.34 0.065,2.813 -0.063,5.754 -0.383,8.756 l -0.018,0.11 c -0.075,0.484 -0.16,1.032 -0.483,1.453 -0.289,0.408 -0.797,0.601 -1.311,0.501 -0.528,-0.1 -0.932,-0.468 -1.059,-1.009 C -2.087,8.18 -1.769,5.166 -1.458,2.255 L -1.343,1.162 C -1.228,0.353 -0.584,0 0,0" /></g><g
           transform="translate(222.5256,232.804)"
           id="g180"><path
             id="path182"
             style="fill:#f89e79;fill-opacity:1;fill-rule:nonzero;stroke:none"
             d="m 0,0 c -0.326,-0.235 -0.524,-0.634 -0.529,-1.062 -0.007,-0.421 0.173,-0.814 0.499,-1.065 0.413,-0.278 0.912,-0.341 1.395,-0.401 0.206,-0.027 0.411,-0.052 0.604,-0.098 l 0.005,-0.002 c 0.233,-0.048 0.451,-0.073 0.654,-0.073 0.446,0 0.824,0.118 1.135,0.354 0.912,0.691 1,2.197 1.08,3.522 0.02,0.363 0.04,0.706 0.08,1.022 C 4.948,2.578 4.808,2.949 4.53,3.247 4.231,3.568 3.801,3.758 3.367,3.758 H 3.365 C 1.711,3.655 1.776,2.052 1.824,0.882 1.831,0.659 1.841,0.443 1.839,0.246 1.235,0.336 0.559,0.416 0,0" /></g><g
           transform="translate(193.1481,239.177)"
           id="g184"><path
             id="path186"
             style="fill:#f89e79;fill-opacity:1;fill-rule:nonzero;stroke:none"
             d="M 0,0 C -4.136,0.023 -8.413,0.048 -12.614,-0.298 -16.267,-0.671 -20,-0.842 -23.61,-1.005 c -1.26,-0.057 -2.52,-0.115 -3.785,-0.18 -2.06,-0.128 -3.909,-0.363 -5.642,-0.714 -0.824,-0.135 -1.719,-0.353 -2.1,-0.962 -0.19,-0.308 -0.223,-0.669 -0.095,-1.09 0.186,-0.498 0.657,-0.824 1.213,-0.844 h 0.05 v 0.002 c 3.693,0.236 7.456,0.356 11.093,0.474 l 0.882,0.027 c 2.708,0.083 5.447,0.314 8.092,0.539 2.257,0.19 4.59,0.388 6.877,0.491 0.724,0.008 1.446,0.008 2.172,0.01 3.292,0.008 6.697,0.015 10.004,0.544 0.857,0.085 1.227,0.779 1.21,1.39 -0.018,0.609 -0.426,1.28 -1.29,1.313 C 3.382,-0.02 1.691,-0.01 0,0" /></g><g
           transform="translate(162.8798,242.3609)"
           id="g188"><path
             id="path190"
             style="fill:#f89e79;fill-opacity:1;fill-rule:nonzero;stroke:none"
             d="m 0,0 c -0.083,-0.494 0.008,-0.897 0.263,-1.198 0.549,-0.643 1.716,-0.638 2.741,-0.628 0.433,0.002 0.837,0.005 1.12,-0.043 l 0.04,-0.005 c 0.887,-0.028 1.756,-0.038 2.62,-0.038 2.007,0 3.979,0.061 6.028,0.123 0.689,0.02 1.385,0.04 2.097,0.06 0.063,0 0.13,0 0.195,0.005 2.047,0.05 4.137,0.063 6.161,0.076 5.359,0.03 10.9,0.062 16.289,0.814 0.802,0.14 1.11,0.852 1.055,1.453 -0.053,0.604 -0.479,1.252 -1.285,1.252 H 37.316 C 36.001,1.876 34.701,1.856 33.395,1.839 32.311,1.826 31.226,1.811 30.134,1.809 27.172,1.729 24.156,1.754 21.242,1.776 15.583,1.821 9.726,1.869 3.948,1.152 3.658,1.082 3.227,1.077 2.773,1.075 1.691,1.067 0.348,1.055 0,0" /></g><g
           transform="translate(171.5588,248.2506)"
           id="g192"><path
             id="path194"
             style="fill:#f89e79;fill-opacity:1;fill-rule:nonzero;stroke:none"
             d="m 0,0 c 0.113,0.005 0.223,0.013 0.338,0.005 h 0.013 c 0.518,-0.015 1.037,-0.02 1.556,-0.02 2.7,0 5.411,0.17 8.046,0.336 3.019,0.188 6.141,0.385 9.235,0.323 0.461,0.017 0.919,0.042 1.38,0.065 0.845,0.045 1.689,0.088 2.556,0.108 0.859,0.067 1.24,0.764 1.227,1.383 -0.01,0.646 -0.458,1.317 -1.292,1.352 C 15.513,3.783 7.423,3.826 -0.666,2.568 -1.152,2.418 -1.513,1.974 -1.581,1.436 -1.643,0.922 -1.423,0.443 -1.01,0.19 -0.664,-0.035 -0.311,-0.018 0,0" /></g><g
           transform="translate(229.9623,215.4349)"
           id="g196"><path
             id="path198"
             style="fill:#f89e79;fill-opacity:1;fill-rule:nonzero;stroke:none"
             d="m 0,0 c -0.068,-0.496 0.12,-0.942 0.564,-1.323 l 0.02,-0.015 c 0.21,-0.153 0.461,-0.233 0.719,-0.233 0.133,0 0.268,0.02 0.401,0.063 0.36,0.113 0.656,0.373 0.801,0.704 C 2.951,-0.506 3.4,-0.218 3.848,0.073 4.52,0.504 5.211,0.949 5.855,1.403 6.213,1.608 6.446,1.881 6.551,2.205 6.732,2.691 6.584,3.254 6.181,3.64 5.777,4.026 5.231,4.136 4.745,3.931 3.693,3.442 0.238,1.716 0,0" /></g><g
           transform="translate(236.105,215.7824)"
           id="g200"><path
             id="path202"
             style="fill:#f89e79;fill-opacity:1;fill-rule:nonzero;stroke:none"
             d="M 0,0 C -1.586,-0.531 -2.919,-1.626 -4.206,-2.686 -4.454,-2.889 -4.7,-3.092 -4.965,-3.304 -5.136,-3.47 -5.316,-3.63 -5.497,-3.79 c -0.398,-0.354 -0.811,-0.72 -1.162,-1.196 -0.263,-0.493 -0.278,-1.059 -0.045,-1.638 0.275,-0.681 0.877,-1.298 1.548,-1.601 -0.428,-1.473 -0.699,-2.989 -0.914,-4.279 -0.04,-0.13 -0.088,-0.273 -0.141,-0.423 -0.29,-0.824 -0.726,-2.075 0.584,-2.546 l 0.02,-0.007 c 0.133,-0.038 0.263,-0.055 0.388,-0.055 0.231,0 0.449,0.06 0.654,0.183 0.95,0.571 1.348,2.382 1.639,3.707 0.093,0.414 0.17,0.775 0.26,1.06 0.043,0.313 0.128,0.679 0.218,1.065 0.263,1.135 0.564,2.423 -0.047,3.192 -0.191,0.238 -0.454,0.406 -0.787,0.503 1.017,0.687 1.944,1.476 2.783,2.187 0.188,0.168 0.404,0.319 0.619,0.471 0.484,0.341 0.98,0.692 1.275,1.235 l 0.223,0.419 H 1.526 C 1.568,-1.198 1.488,-0.862 1.29,-0.571 1,-0.148 0.531,0.075 0,0" /></g><g
           transform="translate(261.8378,239.4195)"
           id="g204"><path
             id="path206"
             style="fill:#f89e79;fill-opacity:1;fill-rule:nonzero;stroke:none"
             d="m 0,0 c -0.516,-0.301 -0.802,-0.844 -0.782,-1.513 0.055,-0.629 0.086,-1.265 0.113,-1.904 0.07,-1.476 0.138,-3.002 0.561,-4.445 l 0.015,-0.037 c 0.203,-0.446 0.637,-0.712 1.143,-0.712 0.065,0 0.135,0.005 0.205,0.015 0.586,0.083 1.02,0.489 1.105,1.075 0.012,1.042 0.058,2.105 0.1,3.134 0.04,0.955 0.08,1.912 0.095,2.856 C 2.59,-0.879 2.317,-0.328 1.811,-0.018 1.275,0.311 0.546,0.318 0,0" /></g><g
           transform="translate(265.3907,253.6082)"
           id="g208"><path
             id="path210"
             style="fill:#f89e79;fill-opacity:1;fill-rule:nonzero;stroke:none"
             d="M 0,0 C 0.115,1.576 0.236,3.207 0.271,4.845 0.2,5.975 -0.408,6.406 -0.764,6.564 -1.338,6.819 -2.044,6.712 -2.563,6.296 -3.172,5.812 -3.42,5.028 -3.252,4.186 c 0.058,-1.094 0.01,-2.249 -0.04,-3.367 -0.098,-2.287 -0.2,-4.65 0.581,-6.812 l 0.02,-0.042 c 0.258,-0.466 0.737,-0.734 1.22,-0.734 0.191,0 0.384,0.042 0.564,0.13 0.847,0.401 0.759,1.223 0.689,1.881 -0.028,0.261 -0.055,0.507 -0.03,0.735 0.05,1.342 0.15,2.705 0.248,4.023" /></g><g
           transform="translate(278.9,237.5408)"
           id="g212"><path
             id="path214"
             style="fill:#f89e79;fill-opacity:1;fill-rule:nonzero;stroke:none"
             d="m 0,0 0.003,0.01 c 0.18,-0.055 0.34,-0.078 0.481,-0.078 0.42,0 0.686,0.198 0.826,0.349 C 1.719,0.714 1.801,1.506 1.508,2.16 1.245,2.751 0.759,3.071 0.135,3.069 -0.584,3.026 -1.087,2.588 -1.177,1.924 -1.275,1.208 -0.862,0.293 0,0" /></g><g
           transform="translate(276.6909,234.3598)"
           id="g216"><path
             id="path218"
             style="fill:#f89e79;fill-opacity:1;fill-rule:nonzero;stroke:none"
             d="m 0,0 c 0.333,-0.752 0.927,-1.315 1.498,-1.861 l 0.218,-0.208 0.003,-0.003 c 0.26,-0.248 0.553,-0.348 0.839,-0.348 0.338,0 0.664,0.143 0.904,0.348 0.444,0.383 0.714,1.087 0.253,1.744 l -0.218,0.29 C 3.064,0.546 2.573,1.2 1.902,1.576 L 1.907,1.581 C 1.446,1.864 0.859,1.811 0.413,1.443 -0.028,1.08 -0.193,0.521 0,0" /></g><g
           transform="translate(280.1213,227.5319)"
           id="g220"><path
             id="path222"
             style="fill:#f89e79;fill-opacity:1;fill-rule:nonzero;stroke:none"
             d="m 0,0 c -0.594,0.396 -1.451,0.463 -2.022,0.138 -0.393,-0.281 -0.606,-0.632 -0.631,-1.042 -0.058,-0.875 0.767,-1.754 1.393,-2.338 l 0.01,-0.01 c 0.283,-0.238 0.609,-0.361 0.932,-0.361 0.153,0 0.308,0.028 0.456,0.086 0.498,0.187 0.869,0.656 0.949,1.192 0.07,0.471 -0.097,0.92 -0.461,1.255 C 0.624,-0.656 0.403,-0.268 0,0" /></g><g
           transform="translate(279.1999,219.9484)"
           id="g224"><path
             id="path226"
             style="fill:#f89e79;fill-opacity:1;fill-rule:nonzero;stroke:none"
             d="M 0,0 C 0.361,0 0.686,0.14 0.927,0.411 1.288,0.814 1.393,1.441 1.18,1.937 0.98,2.4 0.544,2.676 0.008,2.688 -0.824,2.796 -1.328,2.212 -1.438,1.623 -1.553,1.005 -1.253,0.273 -0.453,0.07 -0.298,0.023 -0.148,0 0,0" /></g><g
           transform="translate(313.0628,250.9974)"
           id="g228"><path
             id="path230"
             style="fill:#f89e79;fill-opacity:1;fill-rule:nonzero;stroke:none"
             d="m 0,0 c 1.082,-0.038 2.185,-0.286 3.252,-0.524 0.787,-0.175 1.601,-0.355 2.412,-0.458 3.543,-0.496 7.318,-0.995 11.124,-1.183 h 0.015 0.017 c 0.171,0.01 0.366,0.008 0.572,0.005 0.932,-0.012 2.33,-0.03 2.495,1.346 0.06,0.714 -0.461,1.405 -1.135,1.505 C 17.469,0.882 16.189,1.09 14.909,1.298 11.685,1.824 8.35,2.367 5.033,2.568 3.71,2.701 2.515,2.811 1.298,2.833 L 1.127,2.836 C 0.641,2.851 0.085,2.869 -0.396,2.593 -0.907,2.325 -1.175,1.754 -1.082,1.137 -0.992,0.551 -0.584,0.105 0,0" /></g><g
           transform="translate(285.534,213.9122)"
           id="g232"><path
             id="path234"
             style="fill:#f89e79;fill-opacity:1;fill-rule:nonzero;stroke:none"
             d="m 0,0 h 0.055 c 0.664,0.028 1.183,0.504 1.26,1.177 0.173,2.744 0.316,5.53 0.454,8.238 0.035,2.332 0.185,4.7 0.33,6.99 0.078,1.215 0.156,2.43 0.216,3.65 0.017,0.443 0.022,0.884 0.027,1.328 0.008,0.601 0.013,1.225 0.048,1.803 0.065,0.394 0.11,0.9 -0.095,1.331 l -0.539,1.132 v -0.541 c -0.118,0.068 -0.25,0.12 -0.388,0.15 -0.436,0.103 -0.882,0 -1.193,-0.273 -0.466,-0.403 -0.631,-0.987 -0.724,-1.45 C -1.062,20.992 -1.105,18.366 -1.145,15.831 -1.16,14.926 -1.175,14.022 -1.21,13.11 -1.198,11.509 -1.24,9.881 -1.283,8.305 -1.343,5.948 -1.405,3.51 -1.293,1.102 l 0.005,-0.04 C -1.14,0.323 -0.546,0 0,0" /></g><g
           transform="translate(298.2463,239.8975)"
           id="g236"><path
             id="path238"
             style="fill:#f89e79;fill-opacity:1;fill-rule:nonzero;stroke:none"
             d="M 0,0 -0.015,0.05 C -0.208,0.689 -0.712,1.085 -1.333,1.085 H -1.348 C -2.004,1.077 -2.573,0.621 -2.758,-0.043 -3.66,-2.891 -4.096,-5.76 -4.059,-8.591 c 0.02,-0.233 0.02,-0.546 0.02,-0.902 0.005,-1.425 0.013,-3.377 1.01,-3.873 0.178,-0.09 0.371,-0.13 0.576,-0.13 1.02,0 2.33,0.99 3.42,1.811 0.373,0.283 0.694,0.526 0.96,0.689 0.493,0.374 0.681,1.022 0.483,1.654 -0.203,0.639 -0.736,1.065 -1.355,1.085 -0.717,0.025 -1.268,-0.434 -1.746,-0.837 -0.015,-0.013 -0.028,-0.025 -0.043,-0.038 0.301,2.716 0.488,5.487 0.669,8.172 z" /></g><g
           transform="translate(302.3979,240.1976)"
           id="g240"><path
             id="path242"
             style="fill:#f89e79;fill-opacity:1;fill-rule:nonzero;stroke:none"
             d="m 0,0 c -0.416,0.12 -0.797,0.08 -1.122,-0.118 -0.764,-0.468 -1.002,-1.681 -1.17,-2.538 -0.023,-0.155 -0.053,-0.325 -0.086,-0.503 -0.162,-0.947 -0.365,-2.125 0.188,-2.869 0.268,-0.363 0.682,-0.578 1.233,-0.646 h 0.008 c 0.052,-0.008 0.102,-0.01 0.155,-0.01 0.411,0 0.822,0.158 1.152,0.446 0.364,0.315 0.584,0.754 0.602,1.212 0.012,0.772 -0.013,1.554 -0.036,2.308 C 0.912,-2.33 0.899,-1.939 0.889,-1.606 1.02,-0.907 0.644,-0.218 0,0" /></g><g
           transform="translate(314.217,228.7046)"
           id="g244"><path
             id="path246"
             style="fill:#f89e79;fill-opacity:1;fill-rule:nonzero;stroke:none"
             d="M 0,0 C 0.083,2.257 0.168,4.59 0.068,6.922 -0.033,7.516 -0.499,7.957 -1.122,8.047 -1.729,8.132 -2.292,7.847 -2.568,7.275 -3.084,5.654 -3.425,3.893 -3.585,2.044 -3.783,-0.205 -3.941,-2.643 -3.76,-5.219 -3.738,-5.534 -3.758,-5.9 -3.783,-6.288 -3.846,-7.34 -3.916,-8.53 -3.114,-9.267 l 0.027,-0.023 c 0.261,-0.182 0.529,-0.253 0.8,-0.253 0.463,0 0.924,0.213 1.322,0.439 0.216,0.153 0.474,0.293 0.75,0.438 0.769,0.414 1.641,0.885 1.786,1.887 0.06,0.689 -0.303,1.285 -0.947,1.56 -0.439,0.186 -0.917,0.178 -1.325,0 0.08,0.629 0.18,1.261 0.28,1.874 C -0.246,-2.257 -0.065,-1.135 0,0" /></g><g
           transform="translate(316.2849,223.6492)"
           id="g248"><path
             id="path250"
             style="fill:#f89e79;fill-opacity:1;fill-rule:nonzero;stroke:none"
             d="m 0,0 c 0.183,-0.065 0.371,-0.098 0.554,-0.098 0.426,0 0.829,0.173 1.107,0.496 C 2.52,1.39 1.909,4.986 1.606,5.94 L 1.536,6.138 H 1.501 C 1.31,6.439 0.992,6.647 0.619,6.712 0.16,6.787 -0.286,6.639 -0.596,6.296 -1.22,5.482 -1.132,3.843 -1.06,2.525 -1.037,2.094 -1.015,1.696 -1.022,1.38 V 1.368 C -1.01,0.757 -0.609,0.22 0,0" /></g><g
           transform="translate(328.0074,234.0647)"
           id="g252"><path
             id="path254"
             style="fill:#f89e79;fill-opacity:1;fill-rule:nonzero;stroke:none"
             d="m 0,0 -0.105,-0.078 c -0.248,0.356 -0.694,0.574 -1.133,0.554 -0.588,-0.028 -1.084,-0.466 -1.21,-1.065 -0.23,-1.107 -0.39,-2.247 -0.543,-3.349 l -0.078,-0.556 c -0.486,-2.446 -0.263,-4.933 -0.045,-7.371 0.01,-1.278 0.223,-2.616 0.641,-4.051 0.06,-0.428 0.178,-1.225 0.842,-1.528 0.18,-0.09 0.371,-0.131 0.566,-0.131 0.932,0 1.984,0.9 2.859,1.649 0.308,0.263 0.596,0.511 0.847,0.681 0.729,0.632 0.638,1.529 0.175,2.09 -0.055,0.065 -0.115,0.125 -0.18,0.18 1.232,0.093 1.405,1.508 1.503,2.385 l 0.022,0.206 c -0.002,0.155 0.013,0.325 0.028,0.501 0.057,0.704 0.128,1.58 -0.717,2.016 -0.433,0.191 -0.846,0.186 -1.205,-0.01 -0.826,-0.453 -1.107,-1.758 -1.192,-2.302 -0.098,-0.694 -0.176,-1.686 0.313,-2.302 0.038,-0.048 0.08,-0.085 0.123,-0.126 -0.261,-0.027 -0.526,-0.125 -0.782,-0.328 -0.185,-0.138 -0.358,-0.273 -0.524,-0.403 0.098,1.551 0.116,3.212 0.051,5.038 l 0.03,1.065 c 0.065,2.172 0.135,4.414 -0.188,6.604 l 0.022,0.015 z" /></g><g
           transform="translate(346.779,239.9476)"
           id="g256"><path
             id="path258"
             style="fill:#f89e79;fill-opacity:1;fill-rule:nonzero;stroke:none"
             d="M 0,0 C -0.015,0.118 -0.035,0.238 -0.048,0.356 L -0.09,0.742 -0.311,0.644 c -0.057,0.123 -0.117,0.248 -0.178,0.368 l -0.1,0.201 c -0.516,1.019 -1.047,2.074 -1.54,3.126 -0.243,0.526 -0.482,1.052 -0.72,1.578 L -2.941,6.12 C -3.142,6.544 -3.355,6.957 -3.57,7.371 l -0.168,0.325 c -0.817,1.579 -1.636,3.157 -2.478,4.74 l -0.165,0.273 c -0.235,0.389 -0.456,0.759 -0.669,1.118 -0.07,0.117 -0.135,0.233 -0.203,0.348 -0.102,0.175 -0.205,0.348 -0.303,0.518 -0.11,0.191 -0.218,0.379 -0.323,0.562 -0.01,0.017 -0.018,0.035 -0.028,0.052 -0.127,0.223 -0.253,0.444 -0.373,0.662 l -0.068,0.12 -0.002,0.002 c -0.178,0.321 -0.348,0.634 -0.514,0.94 -0.017,0.038 -0.037,0.075 -0.06,0.11 l -0.002,-0.002 -0.529,0.967 h 0.008 l -0.461,0.836 c -0.098,0.181 -0.196,0.359 -0.294,0.537 l -0.215,0.388 c -0.263,0.473 -0.526,0.944 -0.779,1.415 l -0.419,0.787 -0.14,0.02 c -6.336,1.025 -12.867,1.829 -19.977,2.46 -4.908,0.328 -9.873,0.962 -14.676,1.576 -5.449,0.697 -11.083,1.418 -16.675,1.696 -0.506,0.526 -1.318,0.526 -2.38,0.013 -0.429,-0.121 -0.764,-0.461 -0.894,-0.91 -0.131,-0.446 -0.033,-0.909 0.253,-1.23 0.32,-0.396 0.784,-0.551 1.237,-0.656 0.97,-0.241 1.972,-0.396 2.939,-0.546 l 0.198,-0.03 c 2.67,-0.374 5.336,-0.77 8.002,-1.163 5.927,-0.879 12.055,-1.786 18.123,-2.42 1.606,-0.17 3.217,-0.313 4.828,-0.456 2.139,-0.19 4.354,-0.388 6.523,-0.651 h 0.005 c 1.666,-0.186 3.33,-0.401 4.993,-0.614 2.147,-0.278 4.347,-0.559 6.549,-0.777 0.115,-0.37 0.276,-0.716 0.434,-1.052 l 0.145,-0.316 c 0.068,-0.152 0.145,-0.3 0.215,-0.448 -0.977,0.113 -1.926,0.21 -2.828,0.286 -5.216,0.491 -10.765,1.017 -16.259,1.578 -1.085,0.07 -2.188,0.183 -3.252,0.293 -2.232,0.228 -4.542,0.463 -6.81,0.333 -0.583,0.035 -1.365,-0.11 -1.839,-0.563 -0.01,0.02 -0.012,0.037 -0.025,0.057 -0.255,0.431 -0.683,0.667 -1.157,0.644 -0.564,-0.025 -1.127,-0.398 -1.368,-0.909 -0.208,-0.439 -0.153,-0.917 0.148,-1.318 0.268,-0.361 0.626,-0.506 0.987,-0.506 0.313,0 0.629,0.112 0.887,0.283 0.113,0.077 0.215,0.173 0.311,0.275 0.235,-0.443 0.668,-0.689 1.297,-0.706 l 0.704,-0.128 c 0.556,-0.105 1.118,-0.208 1.666,-0.285 2.122,-0.411 4.297,-0.544 6.401,-0.672 1.215,-0.073 2.471,-0.148 3.693,-0.278 6.246,-0.747 12.349,-1.4 18.136,-1.947 h 0.002 c 0.384,-0.03 0.769,-0.07 1.153,-0.112 0.123,-0.243 0.248,-0.486 0.371,-0.732 0.553,-1.09 1.129,-2.159 1.721,-3.249 0.631,-1.188 1.267,-2.368 1.919,-3.55 0.35,-0.637 0.724,-1.258 1.1,-1.879 0.325,-0.539 0.648,-1.077 0.959,-1.626 l 0.439,-0.782 c 0.137,-0.248 0.28,-0.493 0.42,-0.744 -2.535,0.416 -5.11,0.657 -7.618,0.882 -1.902,0.17 -3.866,0.346 -5.775,0.599 -3.031,0.471 -6.128,0.761 -9.124,1.042 -3.137,0.296 -6.384,0.599 -9.56,1.112 -1.133,0.136 -2.268,0.271 -3.4,0.406 -3.808,0.456 -7.744,0.93 -11.645,1.28 -1.027,0.051 -2.074,0.138 -3.084,0.226 -2.117,0.18 -4.304,0.366 -6.451,0.193 -0.245,1.082 -0.618,2.134 -0.992,3.161 -0.175,0.479 -0.348,0.957 -0.508,1.439 -0.258,0.766 -0.509,1.533 -0.762,2.299 -1.045,3.165 -2.124,6.439 -3.452,9.588 -0.286,0.606 -0.506,1.26 -0.717,1.892 -0.255,0.756 -0.518,1.54 -0.922,2.297 -0.466,0.689 -1.225,0.674 -1.733,0.368 -0.516,-0.31 -0.855,-0.982 -0.514,-1.671 l 0.158,-0.684 c 0.22,-0.944 0.446,-1.919 0.596,-2.911 1.215,-5.421 2.924,-11.629 6.236,-17.114 -0.005,-0.187 0.025,-0.393 0.105,-0.618 0.348,-0.772 1.14,-0.81 1.776,-0.84 0.186,-0.01 0.369,-0.017 0.546,-0.045 4.455,-0.601 8.999,-1.077 13.394,-1.538 5.103,-0.534 10.379,-1.085 15.56,-1.839 4.459,-0.323 9.285,-0.822 14.759,-1.526 1.29,-0.137 2.603,-0.212 3.873,-0.283 1.408,-0.08 2.863,-0.162 4.291,-0.333 0.086,-0.007 0.173,-0.007 0.261,-0.012 -0.501,-2.238 -0.651,-4.567 -0.797,-6.837 -0.037,-0.614 -0.075,-1.225 -0.122,-1.844 -0.148,-5.532 0.067,-11.159 0.646,-16.725 l 0.002,-0.021 c 0.133,-0.759 0.765,-1.092 1.323,-1.092 0.028,0 0.053,0 0.08,0.003 0.577,0.032 1.22,0.433 1.268,1.235 0.1,1.794 0.063,3.665 0.025,5.474 -0.025,1.227 -0.05,2.498 -0.033,3.743 -0.08,2.375 0.143,4.792 0.356,7.127 0.228,2.521 0.466,5.129 0.333,7.724 -0.032,0.366 -0.02,0.749 -0.01,1.122 0.797,-0.012 1.599,-0.032 2.39,-0.122 0.221,-0.058 0.436,-0.088 0.642,-0.088 0.491,0 0.922,0.165 1.225,0.486 0.223,0.236 0.341,0.534 0.353,0.834 C -0.073,-1.167 0,-1.042 0.048,-0.904 0.153,-0.591 0.133,-0.273 0,0" /></g><g
           transform="translate(160.9048,226.5802)"
           id="g260"><path
             id="path262"
             style="fill:#f89e79;fill-opacity:1;fill-rule:nonzero;stroke:none"
             d="m 0,0 c 0.942,-0.03 1.884,-0.058 2.826,-0.085 1.576,-0.045 3.154,-0.088 4.732,-0.156 0.835,-0.032 1.669,-0.077 2.503,-0.12 l 1.23,-0.065 c 1.02,-0.053 2.037,-0.093 3.054,-0.13 l 0.779,-0.03 c 2.195,-0.09 4.58,-0.166 7.509,-0.236 1.52,-0.037 3.039,-0.08 4.559,-0.122 l 3.024,-0.086 c 0.885,-0.022 1.776,-0.04 2.663,-0.04 0.286,0 0.574,0 0.865,0.008 0.553,0.005 1.135,0.037 1.831,0.1 0.115,0.013 0.231,0.028 0.348,0.043 0.161,0.022 0.323,0.042 0.466,0.052 0.206,0.003 0.411,0 0.617,-0.002 l 0.415,-0.003 c 0.659,-0.022 1.203,0.466 1.301,1.09 0.378,0.168 0.714,0.468 1.009,0.742 0.141,0.132 0.278,0.263 0.441,0.388 0.612,0.606 1.243,1.192 1.874,1.779 0.829,0.771 1.686,1.565 2.46,2.367 3.611,2.819 6.832,6.151 9.949,9.372 0.534,0.554 1.065,1.105 1.598,1.651 1.165,1.17 2.408,2.303 3.61,3.398 1.438,1.307 2.924,2.663 4.297,4.101 0.892,0.944 1.691,1.766 2.453,2.517 0.879,-2.78 2.031,-5.504 3.151,-8.139 l 0.171,-0.399 c 0.463,-1.3 1.017,-2.808 1.741,-4.251 0.245,-0.433 0.506,-1.218 0.779,-2.047 0.634,-1.914 1.29,-3.893 2.405,-4.159 l 0.005,-0.002 c 0.088,-0.018 0.175,-0.028 0.261,-0.028 0.393,0 0.771,0.191 1.027,0.531 0.32,0.426 0.368,0.965 0.12,1.423 -0.243,0.394 -0.378,0.835 -0.521,1.306 l -0.098,0.313 c -0.874,2.598 -1.906,5.168 -2.906,7.656 l -0.516,1.288 c -0.391,0.992 -0.752,2.014 -1.097,3.004 -0.386,1.099 -0.785,2.234 -1.23,3.337 -0.123,0.303 -0.226,0.623 -0.329,0.947 -0.228,0.701 -0.473,1.418 -0.922,2.041 -0.055,0.226 -0.165,0.436 -0.32,0.609 -0.173,0.191 -0.396,0.336 -0.642,0.411 0.186,0.236 0.296,0.524 0.293,0.822 -0.007,0.656 -0.513,1.202 -1.159,1.265 -0.051,0.01 -0.093,0.01 -0.121,0.01 -0.065,0.008 -0.125,0.015 -0.165,0.01 l -0.073,0.008 c -0.05,0.002 -0.102,0.01 -0.153,0.02 l -0.077,0.01 c -0.12,0.02 -0.243,0.05 -0.371,0.09 -0.21,0.055 -0.423,0.085 -0.634,0.115 l -0.165,0.023 c -0.276,0.05 -0.571,0.097 -0.877,0.115 -0.366,0.022 -0.737,0.045 -1.105,0.062 -0.393,0.021 -0.854,0.041 -1.34,0.061 l -1.042,0.045 c -0.907,0.06 -1.897,0.09 -3.117,0.097 l -2.528,0.013 c -1.686,0.007 -3.372,0.015 -5.055,0.038 -1.238,0.015 -2.473,0.04 -3.708,0.067 -1.238,0.025 -2.478,0.05 -3.713,0.065 -5.291,0.083 -10.061,0.153 -14.937,0.136 -1.433,0 -2.871,-0.048 -3.963,-0.091 -0.263,-0.01 -0.524,-0.022 -0.784,-0.035 -0.346,-0.017 -0.689,-0.032 -1.037,-0.042 L 19.646,33.21 c -1.185,-0.04 -2.372,-0.09 -3.56,-0.14 L 15.215,33.035 C 14.215,33 13.183,32.96 12.181,32.852 11.865,32.834 11.542,32.807 11.214,32.779 10.996,32.767 10.775,32.757 10.547,32.734 L 10.219,32.729 H 10.207 C 9.883,32.729 9.57,32.596 9.33,32.356 9.077,32.103 8.936,31.76 8.939,31.411 c 0.012,-0.704 0.586,-1.26 1.252,-1.262 0.048,-0.01 0.081,-0.013 0.108,-0.01 0.298,-0.02 0.594,-0.046 0.89,-0.068 l 0.413,-0.035 c 0.245,-0.015 0.491,-0.04 0.737,-0.063 0.253,-0.025 0.503,-0.047 0.756,-0.065 0.749,-0.053 1.503,-0.09 2.255,-0.128 l 0.927,-0.045 c 2.047,-0.102 4.098,-0.195 6.14,-0.28 0.589,-0.04 1.165,-0.068 1.754,-0.096 1.368,-0.072 2.746,-0.09 4.111,-0.102 l 0.013,-0.283 v 0.283 c 0.488,-0.003 0.982,-0.01 1.463,-0.013 l 0.796,-0.002 c 1.168,-0.008 2.335,-0.01 3.503,-0.01 0.817,0 1.636,0.002 2.453,0.005 2.545,0 5.085,0.017 7.631,0.04 0.984,0.005 1.971,0.015 2.956,0.025 1.47,0.017 2.941,0.032 4.412,0.035 1.032,0 2.057,-0.005 3.084,-0.013 1.443,-0.01 2.886,-0.02 4.326,-0.005 0.399,0.005 0.794,0.023 1.19,0.043 l 2.348,0.088 c 0.31,0.005 0.626,0.017 0.939,0.032 h 0.003 c 0.085,0.005 0.17,0.01 0.255,0.013 0.09,0.002 0.181,0.005 0.263,0.01 0.158,0.007 0.308,0.02 0.449,0.042 l 0.285,0.043 c 0.171,0.027 0.339,0.053 0.509,0.073 0.18,0.022 0.358,0.065 0.534,0.11 l 0.147,0.035 c 0.043,0.007 0.093,0.012 0.138,0.022 C 65.36,29.282 64.739,28.736 64.115,28.189 62.464,26.741 60.756,25.243 59.132,23.728 56.504,21.41 54.014,18.88 51.606,16.432 50.221,15.024 48.788,13.569 47.35,12.176 46.42,11.309 45.441,10.46 44.496,9.635 42.56,7.952 40.558,6.211 38.804,4.199 38.659,3.971 38.401,3.703 38.13,3.417 37.642,2.904 37.111,2.337 36.94,1.744 36.8,1.751 36.657,1.756 36.522,1.769 36.359,1.786 36.201,1.819 36.044,1.849 L 35.78,1.902 c -0.506,0.08 -1.099,0.172 -1.693,0.22 -2.145,0.168 -4.332,0.24 -6.446,0.311 l -0.892,0.03 c -0.962,0.035 -1.924,0.07 -2.886,0.105 -1.596,0.06 -3.192,0.12 -4.788,0.17 L 17.352,2.791 C 15.493,2.849 13.571,2.909 11.68,2.934 L 10.374,2.949 C 9.508,2.956 8.638,2.966 7.771,2.984 6.952,3.001 6.128,3.031 5.306,3.061 L 4.119,3.102 c -2.17,0.077 -4.52,0.142 -7.398,0.2 -0.827,0.015 -1.656,0.025 -2.483,0.035 l -1.453,0.02 c -1.115,0.015 -2.273,0.033 -3.402,-0.032 -0.063,-0.003 -0.131,0 -0.193,-0.003 0.1,0.13 0.195,0.263 0.295,0.393 0.481,0.634 0.98,1.288 1.426,1.99 1.355,2.395 2.954,4.607 4.341,6.456 2.323,3.149 4.563,6.461 6.855,10.126 0.095,0.158 0.198,0.316 0.301,0.474 0.413,0.633 0.836,1.287 0.932,2.089 0.027,0.504 -0.259,0.964 -0.75,1.205 -0.308,0.153 -0.648,0.185 -0.952,0.103 v 0.225 L 1.155,25.902 c -1.446,-1.438 -2.588,-3.167 -3.693,-4.838 -0.295,-0.448 -0.591,-0.894 -0.892,-1.335 -0.759,-1.1 -1.54,-2.187 -2.32,-3.274 -1.55,-2.162 -3.156,-4.397 -4.569,-6.719 -0.218,-0.379 -0.434,-0.76 -0.649,-1.14 -0.383,-0.679 -0.767,-1.358 -1.19,-2.065 -0.123,-0.288 -0.406,-0.689 -0.704,-1.112 -0.654,-0.925 -1.396,-1.972 -1.23,-2.854 0.012,-0.065 0.035,-0.127 0.057,-0.187 -0.007,-0.053 -0.02,-0.103 -0.02,-0.158 0.005,-0.642 0.421,-1.225 1.115,-1.559 l 0.181,-0.085 0.157,0.156 c 0.005,0 0.008,0 0.013,-0.003 l 0.053,-0.005 c 0.268,-0.025 0.536,-0.04 0.801,-0.053 l 0.464,-0.027 c 1.445,-0.145 2.756,-0.246 4.003,-0.303 l 1.553,-0.08 c 0.253,-0.013 0.514,-0.025 0.772,-0.038 -0.07,-1.764 -0.027,-3.542 0.023,-5.266 0.035,-1.298 0.072,-2.641 0.057,-3.953 -0.035,-1.549 -0.062,-3.097 -0.092,-4.648 -0.036,-1.889 -0.073,-3.78 -0.118,-5.669 -0.018,-0.341 0.108,-0.672 0.356,-0.935 0.268,-0.283 0.633,-0.446 1.029,-0.446 h 0.003 c 1.435,0.111 1.4,1.481 1.375,2.481 -0.01,0.353 -0.02,0.686 0.028,0.977 0.333,6.193 0.586,11.772 0.285,17.316 C -1.33,0.053 -0.664,0.023 0,0" /></g><g
           transform="translate(363.9936,173.3145)"
           id="g264"><path
             id="path266"
             style="fill:#f89e79;fill-opacity:1;fill-rule:nonzero;stroke:none"
             d="m 0,0 -6.223,-8.478 c -1.15,-1.566 -1.894,-3.119 -2.202,-4.615 -0.331,-1.558 -0.213,-3.059 0.345,-4.457 0.554,-1.377 1.541,-2.597 2.939,-3.625 1.393,-1.022 2.886,-1.565 4.435,-1.618 0.952,-0.038 1.914,0.105 2.868,0.421 0.068,-0.777 0.253,-1.528 0.559,-2.247 0.548,-1.316 1.488,-2.466 2.791,-3.415 1.405,-1.03 2.878,-1.599 4.376,-1.689 0.153,-0.01 0.303,-0.012 0.456,-0.012 1.358,0 2.686,0.368 3.949,1.102 1.357,0.787 2.64,1.994 3.808,3.59 l 5.601,7.634 z m -2.352,-17.377 c -0.97,0.712 -1.474,1.561 -1.536,2.596 -0.065,1.095 0.383,2.307 1.333,3.607 l 3.414,4.653 6.519,-4.79 -2.793,-3.808 c -1.158,-1.579 -2.375,-2.566 -3.623,-2.934 -1.165,-0.343 -2.215,-0.128 -3.314,0.676 m 16.813,-4.998 c -1.015,-1.383 -2.085,-2.239 -3.182,-2.545 -0.997,-0.278 -1.974,-0.053 -2.982,0.684 -0.999,0.734 -1.548,1.556 -1.673,2.503 -0.125,0.974 0.205,1.981 1.015,3.079 l 3.409,4.647 6.206,-4.555 z" /></g><g
           transform="translate(334.1874,139.9762)"
           id="g268"><path
             id="path270"
             style="fill:#f89e79;fill-opacity:1;fill-rule:nonzero;stroke:none"
             d="m 0,0 3.059,-3.317 9.66,8.906 5.667,-6.148 -8.976,-8.28 3.059,-3.319 8.981,8.282 5.083,-5.516 -9.67,-8.922 3.074,-3.319 13.143,12.138 -19.927,21.628 z" /></g><g
           transform="translate(321.0625,130.9329)"
           id="g272"><path
             id="path274"
             style="fill:#f89e79;fill-opacity:1;fill-rule:nonzero;stroke:none"
             d="m 0,0 -4.88,-2.939 0.706,-0.518 4.402,-30.74 4.334,2.613 -3.507,24.286 19.764,-14.518 4.296,2.59 -24.982,18.304 z" /></g><g
           transform="translate(284.7396,114.5862)"
           id="g276"><path
             id="path278"
             style="fill:#f89e79;fill-opacity:1;fill-rule:nonzero;stroke:none"
             d="m 0,0 1.491,-4.267 12.408,4.342 2.759,-7.897 -11.532,-4.033 1.495,-4.262 11.525,4.034 2.483,-7.085 -12.407,-4.339 1.481,-4.269 16.896,5.907 -9.708,27.776 z" /></g><g
           transform="translate(271.8178,111.9178)"
           id="g280"><path
             id="path282"
             style="fill:#f89e79;fill-opacity:1;fill-rule:nonzero;stroke:none"
             d="m 0,0 1.616,-10.971 -4.174,-0.611 c -0.148,-0.022 -0.293,-0.048 -0.438,-0.073 l -8.045,10.042 -5.281,-0.78 8.811,-11.058 -0.022,-0.015 c -1.433,-0.989 -2.523,-2.252 -3.242,-3.75 -0.727,-1.524 -0.965,-3.187 -0.702,-4.938 0.251,-1.754 0.905,-3.277 1.944,-4.532 1.028,-1.233 2.363,-2.14 3.961,-2.693 1.052,-0.366 2.172,-0.549 3.352,-0.549 0.594,0 1.2,0.047 1.819,0.14 l 9.37,1.373 -4.267,29.109 z m -6.819,-21.468 c -0.133,0.9 -0.048,1.701 0.263,2.45 0.313,0.759 0.761,1.366 1.378,1.854 0.596,0.479 1.312,0.782 2.127,0.905 l 5.326,0.779 1.343,-9.152 -4.673,-0.686 c -1.538,-0.228 -2.816,0.02 -3.9,0.751 -1.055,0.717 -1.664,1.729 -1.864,3.099" /></g><g
           transform="translate(248.4816,109.5686)"
           id="g284"><path
             id="path286"
             style="fill:#f89e79;fill-opacity:1;fill-rule:nonzero;stroke:none"
             d="m 0,0 -3.938,-8.192 -11.201,0.679 -2.924,8.608 -5.083,0.313 9.903,-28.949 -0.531,-1.104 5.925,-0.349 -0.391,1.155 13.318,27.536 z m -6.053,-12.589 -4.316,-8.976 -3.202,9.429 z" /></g><g
           transform="translate(212.6625,100.9839)"
           id="g288"><path
             id="path290"
             style="fill:#f89e79;fill-opacity:1;fill-rule:nonzero;stroke:none"
             d="m 0,0 -13.604,3.978 3.608,12.361 -4.56,1.328 -8.24,-28.242 4.56,-1.328 3.367,11.545 13.604,-3.979 -3.367,-11.541 4.552,-1.331 8.247,28.245 -4.559,1.328 z" /></g><g
           transform="translate(185.7593,124.7133)"
           id="g292"><path
             id="path294"
             style="fill:#f89e79;fill-opacity:1;fill-rule:nonzero;stroke:none"
             d="m 0,0 -12.867,-26.446 4.266,-2.087 12.87,26.456 z" /></g><g
           transform="translate(162.6931,138.9914)"
           id="g296"><path
             id="path298"
             style="fill:#f89e79;fill-opacity:1;fill-rule:nonzero;stroke:none"
             d="M 0,0 -2.508,-3.748 8.42,-11.066 -5.421,-31.76 l 3.94,-2.645 16.355,24.457 z" /></g><g
           transform="translate(145.5863,154.9896)"
           id="g300"><path
             id="path302"
             style="fill:#f89e79;fill-opacity:1;fill-rule:nonzero;stroke:none"
             d="m 0,0 -3.122,-3.267 9.551,-9.056 -17.137,-18.066 3.455,-3.264 20.23,21.342 z" /></g><g
           transform="translate(133.4524,155.8121)"
           id="g304"><path
             id="path306"
             style="fill:#f89e79;fill-opacity:1;fill-rule:nonzero;stroke:none"
             d="m 0,0 3.998,-2.588 0.622,0.924 c 0.526,0.782 0.934,1.656 1.212,2.593 0.288,0.96 0.421,2.01 0.389,3.125 -0.03,1.134 -0.281,2.329 -0.734,3.54 -0.444,1.215 -1.153,2.497 -2.11,3.813 -1.328,1.828 -2.781,3.161 -4.321,3.96 -1.574,0.817 -3.157,1.165 -4.703,1.035 -1.548,-0.13 -2.976,-0.661 -4.241,-1.583 -1.554,-1.135 -2.506,-2.884 -2.826,-5.199 -0.308,-2.202 0.125,-4.727 1.282,-7.501 l 1.078,-2.595 c 0.483,-1.213 0.701,-2.31 0.649,-3.262 -0.043,-0.779 -0.484,-1.465 -1.343,-2.092 -1.002,-0.724 -2.01,-0.942 -3.092,-0.666 -1.142,0.295 -2.207,1.115 -3.169,2.44 -0.929,1.278 -1.453,2.578 -1.553,3.863 -0.098,1.253 0.19,2.4 0.882,3.507 l 0.593,0.95 -3.875,2.49 -0.637,-0.816 c -0.681,-0.875 -1.177,-1.985 -1.47,-3.307 -0.288,-1.313 -0.286,-2.761 0.01,-4.302 0.29,-1.563 1.022,-3.154 2.169,-4.733 1.904,-2.623 4.024,-4.216 6.304,-4.735 0.571,-0.13 1.142,-0.195 1.711,-0.195 1.748,0 3.48,0.616 5.168,1.844 1.253,0.914 2.112,2.007 2.548,3.249 0.423,1.19 0.564,2.473 0.418,3.813 -0.14,1.253 -0.456,2.518 -0.942,3.763 l -1.052,2.636 c -0.684,1.713 -1.037,3.269 -1.055,4.617 -0.007,1.133 0.396,1.954 1.268,2.591 0.917,0.666 1.887,0.786 3.062,0.375 C -2.478,11.108 -1.19,10.006 0.068,8.28 1.027,6.952 1.503,5.649 1.518,4.299 1.531,2.936 1.248,1.841 0.649,0.96 Z" /></g><g
           transform="translate(138.2606,322.3582)"
           id="g308"><path
             id="path310"
             style="fill:#f89e79;fill-opacity:1;fill-rule:nonzero;stroke:none"
             d="m 0,0 c -1.393,1.02 -2.886,1.566 -4.434,1.616 -0.95,0.038 -1.914,-0.103 -2.869,-0.418 -0.068,0.776 -0.253,1.53 -0.556,2.257 -0.556,1.313 -1.496,2.46 -2.793,3.404 -1.406,1.03 -2.879,1.596 -4.377,1.689 -1.518,0.093 -2.999,-0.276 -4.404,-1.09 -1.361,-0.786 -2.641,-1.994 -3.809,-3.59 l -5.604,-7.633 23.705,-17.41 6.223,8.478 c 1.15,1.566 1.894,3.119 2.202,4.615 C 3.618,-6.514 3.5,-5.013 2.939,-3.625 2.385,-2.247 1.398,-1.027 0,0 m -16.189,-7.168 -6.206,4.555 2.794,3.813 c 1.014,1.383 2.084,2.24 3.179,2.545 0.999,0.278 1.977,0.053 2.984,-0.684 0.999,-0.736 1.548,-1.555 1.673,-2.505 0.125,-0.972 -0.205,-1.979 -1.014,-3.076 z m 13.604,-2.833 -3.415,-4.652 -6.519,4.79 2.791,3.808 c 1.16,1.578 2.38,2.565 3.625,2.933 1.168,0.346 2.22,0.131 3.315,-0.676 0.969,-0.712 1.47,-1.561 1.535,-2.595 0.066,-1.095 -0.383,-2.308 -1.332,-3.608" /></g><g
           transform="translate(150.2063,328.9326)"
           id="g312"><path
             id="path314"
             style="fill:#f89e79;fill-opacity:1;fill-rule:nonzero;stroke:none"
             d="m 0,0 -5.667,6.148 8.976,8.28 -3.058,3.319 -8.982,-8.282 -5.083,5.517 9.67,8.921 -3.071,3.319 L -20.36,15.084 -0.433,-6.544 12.719,5.589 9.663,8.906 Z" /></g><g
           transform="translate(175.8228,377.7633)"
           id="g316"><path
             id="path318"
             style="fill:#f89e79;fill-opacity:1;fill-rule:nonzero;stroke:none"
             d="m 0,0 -4.334,-2.616 3.51,-24.286 -19.764,14.521 -4.302,-2.591 24.985,-18.303 0.133,-0.922 4.878,2.939 -0.704,0.516 z" /></g><g
           transform="translate(198.4734,359.8375)"
           id="g320"><path
             id="path322"
             style="fill:#f89e79;fill-opacity:1;fill-rule:nonzero;stroke:none"
             d="m 0,0 -2.758,7.897 11.531,4.033 -1.495,4.262 -11.522,-4.034 -2.483,7.085 12.406,4.339 -1.483,4.269 -16.893,-5.907 9.706,-27.776 16.89,5.907 -1.49,4.267 z" /></g><g
           transform="translate(232.8281,376.0477)"
           id="g324"><path
             id="path326"
             style="fill:#f89e79;fill-opacity:1;fill-rule:nonzero;stroke:none"
             d="m 0,0 c 1.433,0.99 2.523,2.25 3.242,3.75 0.729,1.524 0.964,3.185 0.704,4.938 -0.253,1.757 -0.907,3.28 -1.944,4.522 -1.027,1.238 -2.36,2.147 -3.964,2.704 -1.578,0.546 -3.317,0.684 -5.171,0.408 l -9.369,-1.373 4.266,-29.111 4.703,0.696 -1.614,10.971 4.172,0.611 c 0.147,0.023 0.295,0.045 0.44,0.073 l 8.045,-10.042 5.281,0.78 -8.814,11.058 C -0.015,-0.01 -0.008,-0.005 0,0 M -0.975,5.552 C -1.288,4.793 -1.739,4.186 -2.352,3.698 -2.951,3.219 -3.668,2.914 -4.482,2.793 l -5.326,-0.781 -1.343,9.154 4.672,0.687 c 1.539,0.225 2.816,-0.021 3.904,-0.752 1.052,-0.717 1.663,-1.729 1.861,-3.099 0.133,-0.9 0.048,-1.701 -0.261,-2.45" /></g><g
           transform="translate(262.4047,393.5752)"
           id="g328"><path
             id="path330"
             style="fill:#f89e79;fill-opacity:1;fill-rule:nonzero;stroke:none"
             d="m 0,0 -5.925,0.351 0.393,-1.158 -13.32,-27.535 5.078,-0.303 3.941,8.192 11.201,-0.677 2.921,-8.608 5.083,-0.313 -9.903,28.946 z m -0.203,-16.507 -7.518,0.451 4.319,8.979 z" /></g><g
           transform="translate(302.6875,385.4182)"
           id="g332"><path
             id="path334"
             style="fill:#f89e79;fill-opacity:1;fill-rule:nonzero;stroke:none"
             d="m 0,0 -3.37,-11.544 -13.603,3.978 3.369,11.542 -4.552,1.328 -8.247,-28.242 4.559,-1.328 3.606,12.363 13.606,-3.978 -3.608,-12.361 4.56,-1.328 8.237,28.242 z" /></g><g
           transform="translate(319.9544,378.3182)"
           id="g336"><path
             id="path338"
             style="fill:#f89e79;fill-opacity:1;fill-rule:nonzero;stroke:none"
             d="m 0,0 -12.87,-26.456 4.269,-2.077 12.868,26.446 z" /></g><g
           transform="translate(339.8406,367.2652)"
           id="g340"><path
             id="path342"
             style="fill:#f89e79;fill-opacity:1;fill-rule:nonzero;stroke:none"
             d="m 0,0 -3.941,2.646 -16.354,-24.457 14.876,-9.949 2.508,3.748 -10.928,7.318 z" /></g><g
           transform="translate(362.2341,349.898)"
           id="g344"><path
             id="path346"
             style="fill:#f89e79;fill-opacity:1;fill-rule:nonzero;stroke:none"
             d="m 0,0 -3.455,3.264 -20.23,-21.342 12.977,-12.311 3.122,3.267 -9.548,9.056 z" /></g><g
           transform="translate(387.0204,320.3567)"
           id="g348"><path
             id="path350"
             style="fill:#f89e79;fill-opacity:1;fill-rule:nonzero;stroke:none"
             d="m 0,0 c -0.293,1.563 -1.025,3.157 -2.172,4.732 -1.902,2.624 -4.021,4.217 -6.301,4.735 -2.33,0.534 -4.642,-0.02 -6.879,-1.648 -1.253,-0.912 -2.112,-2.007 -2.548,-3.249 -0.426,-1.19 -0.564,-2.473 -0.419,-3.813 0.141,-1.253 0.456,-2.516 0.942,-3.763 l 1.05,-2.636 c 0.684,-1.713 1.04,-3.269 1.057,-4.617 0.008,-1.13 -0.396,-1.952 -1.267,-2.588 -0.92,-0.669 -1.889,-0.789 -3.062,-0.378 -1.285,0.446 -2.573,1.548 -3.828,3.277 -0.959,1.327 -1.435,2.628 -1.45,3.978 -0.013,1.365 0.27,2.458 0.869,3.342 l 0.649,0.957 -3.999,2.588 -0.621,-0.922 c -0.521,-0.777 -0.93,-1.648 -1.213,-2.595 -0.29,-0.96 -0.42,-2.01 -0.39,-3.122 0.032,-1.137 0.28,-2.33 0.734,-3.543 0.446,-1.215 1.155,-2.497 2.112,-3.81 1.327,-1.831 2.78,-3.164 4.321,-3.961 1.361,-0.706 2.726,-1.062 4.071,-1.062 0.211,0 0.424,0.007 0.632,0.025 1.548,0.13 2.973,0.664 4.241,1.586 1.553,1.132 2.505,2.881 2.826,5.196 0.308,2.204 -0.125,4.727 -1.283,7.501 l -1.079,2.597 c -0.481,1.213 -0.699,2.31 -0.649,3.262 0.045,0.78 0.483,1.463 1.345,2.09 1.002,0.726 2.012,0.944 3.092,0.666 1.142,-0.295 2.207,-1.115 3.169,-2.44 0.929,-1.278 1.453,-2.578 1.553,-3.863 0.098,-1.25 -0.193,-2.398 -0.884,-3.505 l -0.592,-0.949 3.874,-2.491 0.636,0.814 c 0.684,0.875 1.18,1.985 1.473,3.307 C 0.298,-2.989 0.293,-1.541 0,0" /></g><g
           transform="translate(99.7133,239.8539)"
           id="g352"><path
             id="path354"
             style="fill:#f89e79;fill-opacity:1;fill-rule:nonzero;stroke:none"
             d="M 0,0 C 1.593,2.994 5.306,4.129 8.298,2.54 11.291,0.952 12.426,-2.768 10.83,-5.762 9.245,-8.756 5.532,-9.896 2.538,-8.303 -0.453,-6.709 -1.593,-2.994 0,0" /></g><g
           transform="translate(383.1369,239.8539)"
           id="g356"><path
             id="path358"
             style="fill:#f89e79;fill-opacity:1;fill-rule:nonzero;stroke:none"
             d="M 0,0 C 1.593,2.994 5.306,4.129 8.298,2.54 11.289,0.944 12.426,-2.768 10.83,-5.762 9.245,-8.756 5.529,-9.896 2.533,-8.303 -0.453,-6.709 -1.593,-2.994 0,0" /></g><g
           transform="translate(405.001,381.2016)"
           id="g360"><path
             id="path362"
             style="fill:#f89e79;fill-opacity:1;fill-rule:nonzero;stroke:none"
             d="m 0,0 -0.559,0.616 c -0.29,0.321 -0.739,0.449 -1.157,0.331 L -2.52,0.722 C -4.161,0.251 -5.847,0.013 -7.538,0.013 c -10.054,0 -18.234,8.184 -18.234,18.246 0,1.252 0.128,2.507 0.381,3.727 l 0.17,0.815 c 0.088,0.426 -0.075,0.866 -0.418,1.135 l -0.656,0.511 c -37.93,29.777 -83.529,45.518 -131.866,45.518 -47.1,0 -91.774,-15.027 -129.193,-43.459 l -0.749,-0.569 c -0.386,-0.293 -0.543,-0.791 -0.401,-1.252 l 0.283,-0.907 c 0.564,-1.784 0.85,-3.641 0.85,-5.519 0,-10.062 -8.18,-18.246 -18.236,-18.246 -2.478,0 -4.875,0.486 -7.123,1.445 l -0.874,0.373 c -0.443,0.188 -0.96,0.078 -1.29,-0.278 l -0.644,-0.701 c -36.392,-39.574 -56.437,-91 -56.437,-144.803 0,-53.924 20.12,-105.433 56.655,-145.039 l 0.631,-0.684 c 0.321,-0.348 0.824,-0.461 1.265,-0.283 l 0.882,0.354 c 2.2,0.911 4.532,1.375 6.935,1.375 10.056,0 18.236,-8.187 18.236,-18.251 0,-1.786 -0.263,-3.565 -0.779,-5.289 l -0.271,-0.892 c -0.14,-0.458 0.02,-0.954 0.403,-1.245 l 0.744,-0.563 c 37.392,-28.393 82.039,-43.402 129.113,-43.402 48.307,0 93.885,15.728 131.81,45.476 l 0.647,0.501 c 0.343,0.266 0.506,0.699 0.423,1.125 l -0.158,0.804 c -0.223,1.148 -0.333,2.32 -0.333,3.485 0,10.064 8.18,18.251 18.234,18.251 1.606,0 3.226,-0.218 4.81,-0.646 l 0.789,-0.221 c 0.416,-0.115 0.859,0.013 1.15,0.328 l 0.561,0.612 c 36.039,39.49 55.888,90.703 55.888,144.204 C 55.66,-90.574 35.893,-39.451 0,0 m -30.562,-309.378 c -36.81,-28.472 -80.918,-43.516 -127.599,-43.516 -45.406,0 -88.539,14.31 -124.786,41.389 0.361,1.629 0.544,3.317 0.544,5.026 0,12.804 -10.41,23.219 -23.204,23.219 -2.465,0 -4.878,-0.381 -7.183,-1.135 -34.966,38.511 -54.212,88.354 -54.212,140.444 0,51.964 19.168,101.722 53.994,140.201 2.385,-0.805 4.873,-1.21 7.401,-1.21 12.794,0 23.204,10.414 23.204,23.219 0,1.786 -0.206,3.565 -0.607,5.298 36.267,27.112 79.423,41.44 124.849,41.44 46.693,0 90.811,-15.057 127.637,-43.549 -0.148,-1.068 -0.221,-2.137 -0.221,-3.189 0,-12.805 10.41,-23.219 23.207,-23.219 1.628,0 3.259,0.172 4.855,0.516 34.42,-38.376 53.37,-87.893 53.37,-139.507 0,-51.749 -19.035,-101.361 -53.608,-139.768 -1.516,0.306 -3.064,0.459 -4.617,0.459 -12.797,0 -23.207,-10.415 -23.207,-23.219 0,-0.95 0.06,-1.924 0.183,-2.899" /></g><g
           transform="translate(387.4593,105.8838)"
           id="g364"><path
             id="path366"
             style="fill:#f89e79;fill-opacity:1;fill-rule:nonzero;stroke:none"
             d="m 0,0 0.782,-0.213 c 0.408,-0.11 0.846,0.015 1.132,0.328 L 2.465,0.717 C 35.117,36.492 53.1,82.89 53.1,131.367 c 0,48.367 -17.908,94.685 -50.427,130.42 l -0.554,0.609 c -0.288,0.318 -0.731,0.446 -1.147,0.328 L 0.17,262.499 c -1.443,-0.419 -2.948,-0.632 -4.474,-0.632 -8.984,0 -16.294,7.311 -16.294,16.3 0,1.11 0.115,2.23 0.34,3.319 l 0.173,0.812 c 0.09,0.423 -0.068,0.862 -0.408,1.13 l -0.649,0.508 c -34.38,26.98 -75.695,41.24 -119.475,41.24 -42.667,0 -83.143,-13.616 -117.054,-39.376 l -0.744,-0.566 c -0.381,-0.29 -0.539,-0.789 -0.393,-1.247 l 0.283,-0.892 c 0.503,-1.594 0.759,-3.252 0.759,-4.928 0,-8.989 -7.308,-16.3 -16.292,-16.3 -2.21,0 -4.352,0.434 -6.361,1.291 l -0.867,0.37 c -0.443,0.188 -0.957,0.078 -1.283,-0.28 l -0.626,-0.689 c -32.977,-35.851 -51.138,-82.442 -51.138,-131.192 0,-48.86 18.229,-95.526 51.326,-131.402 l 0.626,-0.684 c 0.321,-0.351 0.827,-0.461 1.265,-0.281 l 0.86,0.354 c 1.964,0.811 4.051,1.222 6.198,1.222 8.984,0 16.292,-7.31 16.292,-16.294 0,-1.604 -0.236,-3.194 -0.702,-4.735 l -0.263,-0.885 c -0.135,-0.45 0.023,-0.936 0.399,-1.222 l 0.734,-0.561 c 33.884,-25.725 74.336,-39.323 116.981,-39.323 43.77,0 85.065,14.247 119.422,41.199 l 0.637,0.499 c 0.335,0.26 0.496,0.686 0.418,1.102 l -0.153,0.817 c -0.203,1.019 -0.305,2.064 -0.305,3.109 0,8.984 7.31,16.294 16.294,16.294 C -2.856,0.576 -1.408,0.383 0,0 m -25.369,-18.251 c -33.257,-25.687 -73.094,-39.26 -115.248,-39.26 -40.999,0 -79.951,12.904 -112.697,37.328 0.313,1.458 0.471,2.957 0.471,4.465 0,11.705 -9.518,21.225 -21.215,21.225 -2.19,0 -4.349,-0.336 -6.431,-0.997 -31.554,34.805 -48.921,79.823 -48.921,126.857 0,46.922 17.297,91.861 48.72,126.627 2.127,-0.699 4.355,-1.052 6.632,-1.052 11.697,0 21.215,9.52 21.215,21.225 0,1.588 -0.176,3.169 -0.524,4.705 32.759,24.454 71.729,37.374 112.75,37.374 42.169,0 82.013,-13.584 115.276,-39.291 -0.123,-0.924 -0.185,-1.861 -0.185,-2.788 0,-11.705 9.52,-21.225 21.222,-21.225 1.458,0 2.906,0.148 4.314,0.441 31.063,-34.671 48.162,-79.395 48.162,-126.016 0,-46.738 -17.177,-91.551 -48.38,-126.259 -1.338,0.266 -2.713,0.399 -4.096,0.399 -11.702,0 -21.222,-9.52 -21.222,-21.225 0,-0.842 0.052,-1.691 0.157,-2.533" /></g></g></g></g></svg>